<svg xmlns="http://www.w3.org/2000/svg" width="242" height="40" viewBox="0 0 242 40"><defs><style>.a{fill:#f47d31;}.b,.c{fill:#fff;}.b{font-size:21px;font-family:DINCondensed-Bold, DIN Condensed;font-weight:700;}</style></defs><rect class="a" width="242" height="40" rx="20"/><g transform="translate(11.638 0.128)"><text class="b" transform="translate(163.362 27.844)"><tspan x="-68.061" y="0">COMPRAR </tspan></text><g transform="translate(55.362 9.872)"><path class="c" d="M7.733,13.334H20.484a.7.7,0,0,0,.676-.484l2.813-9.333a.639.639,0,0,0-.115-.585.717.717,0,0,0-.561-.265H6.111L5.608.522A.7.7,0,0,0,4.922,0H.7A.686.686,0,0,0,0,.667a.686.686,0,0,0,.7.667H4.358L6.9,12.165A2,2,0,0,0,5.625,14a2.059,2.059,0,0,0,2.109,2h12.75a.668.668,0,1,0,0-1.333H7.734a.667.667,0,1,1,0-1.333ZM22.365,4l-2.411,8H8.3L6.423,4Zm0,0" transform="translate(0)"/><path class="c" d="M150,362a2.112,2.112,0,1,0,2.109-2A2.059,2.059,0,0,0,150,362Zm2.109-.667a.668.668,0,1,1-.7.667A.687.687,0,0,1,152.109,361.333Zm0,0" transform="translate(-142.969 -344)"/><path class="c" d="M362,362a2.112,2.112,0,1,0,2.109-2A2.059,2.059,0,0,0,362,362Zm2.109-.667a.668.668,0,1,1-.7.667A.686.686,0,0,1,364.109,361.333Zm0,0" transform="translate(-345.031 -344)"/></g></g></svg>