<svg xmlns="http://www.w3.org/2000/svg" width="276" height="21" viewBox="0 0 276 21"><defs><style>.a,.b{fill:#042d61;}.a{font-size:18px;font-family:DINAlternate-Bold, DIN Alternate;font-weight:700;}</style></defs><g transform="translate(-4886.982 -2013.986)"><text class="a" transform="translate(5028.189 2030.986)"><tspan x="-10.802" y="0">+</tspan></text><g transform="translate(5044.749 2013.986)"><text class="a" transform="translate(118.234 17)"><tspan x="-89.191" y="0">VITAMINA C</tspan></text><g transform="translate(0 2.69)"><path class="b" d="M19.273,47.3a5.306,5.306,0,0,0-5.863-1.116.407.407,0,0,0,.324.746,4.492,4.492,0,0,1,4.964,7.3L15.74,57.189,9.388,50.838l1.663-1.663a.407.407,0,1,0-.575-.575l-5.2,5.2a5.3,5.3,0,0,0-1.545,3.448,4.546,4.546,0,0,0-3.3-.377.407.407,0,0,0-.288.288A4.531,4.531,0,0,0,5.7,62.7h0l.031-.01.031.01h0a4.528,4.528,0,0,0,2.173.039,5.359,5.359,0,0,0,1.1.115A5.28,5.28,0,0,0,12.782,61.3l6.491-6.491a5.311,5.311,0,0,0,0-7.5ZM4.53,62.037A3.712,3.712,0,0,1,.883,57.6a3.712,3.712,0,0,1,4.433,3.858L3.8,59.942a.407.407,0,0,0-.575.575l1.513,1.513C4.671,62.035,4.6,62.037,4.53,62.037Zm2.189-.006,1.513-1.513a.407.407,0,1,0-.575-.575L6.144,61.456A3.712,3.712,0,0,1,10.578,57.6,3.712,3.712,0,0,1,6.72,62.031Zm5.487-1.309a4.473,4.473,0,0,1-2.638,1.285,4.49,4.49,0,0,0,.568-.481,4.543,4.543,0,0,0,1.172-4.372.407.407,0,0,0-.288-.288,4.52,4.52,0,0,0-5.291,2.5,4.507,4.507,0,0,0-.919-1.329c-.085-.085-.174-.166-.265-.244a4.491,4.491,0,0,1,1.308-3.424l2.958-2.958,6.351,6.351Z" transform="translate(0.001 -45.75)"/><path class="b" d="M286.842,81.85a.407.407,0,1,0-.288-.119A.41.41,0,0,0,286.842,81.85Z" transform="translate(-274.783 -79.601)"/></g></g><g transform="translate(4886.982 2013.986)"><text class="a" transform="translate(106.657 17)"><tspan x="-77.818" y="0">ARGININA</tspan></text><g transform="translate(0)"><path class="b" d="M11.922,2.534a.422.422,0,0,1-.422-.422V.422a.422.422,0,0,1,.845,0V2.111A.422.422,0,0,1,11.922,2.534Z" transform="translate(-1.788 0)"/><path class="b" d="M18.64,5.407a.422.422,0,0,1-.3-.72l1.194-1.194a.422.422,0,1,1,.6.6L18.938,5.283A.421.421,0,0,1,18.64,5.407Z" transform="translate(-2.833 -0.524)"/><path class="b" d="M23.111,12.345H21.422a.422.422,0,1,1,0-.845h1.689a.422.422,0,0,1,0,.845Z" transform="translate(-3.265 -1.788)"/><path class="b" d="M19.834,20.257a.424.424,0,0,1-.3-.123l-1.194-1.194a.422.422,0,0,1,.6-.6l1.194,1.194a.422.422,0,0,1-.3.72Z" transform="translate(-2.833 -2.833)"/><path class="b" d="M11.922,23.534a.422.422,0,0,1-.422-.422V21.422a.422.422,0,1,1,.845,0v1.689A.422.422,0,0,1,11.922,23.534Z" transform="translate(-1.788 -3.265)"/><path class="b" d="M3.79,20.257a.422.422,0,0,1-.3-.72l1.194-1.194a.422.422,0,0,1,.6.6L4.088,20.133A.421.421,0,0,1,3.79,20.257Z" transform="translate(-0.524 -2.833)"/><path class="b" d="M2.111,12.345H.422a.422.422,0,0,1,0-.845H2.111a.422.422,0,1,1,0,.845Z" transform="translate(0 -1.788)"/><path class="b" d="M4.985,5.407a.424.424,0,0,1-.3-.123L3.492,4.089a.422.422,0,0,1,.6-.6L5.283,4.686a.422.422,0,0,1-.3.72Z" transform="translate(-0.524 -0.524)"/><path class="b" d="M10.017,17.512a.43.43,0,0,1-.148-.026.422.422,0,0,1-.271-.451l.72-5.434h-2.9a.422.422,0,0,1-.338-.676l5.067-6.756a.423.423,0,0,1,.755.323l-.763,4.576h2.88a.422.422,0,0,1,.372.222.426.426,0,0,1-.019.433l-5.005,7.6a.424.424,0,0,1-.353.189ZM8.267,10.756H10.8a.423.423,0,0,1,.419.478l-.541,4.086,3.561-5.408H11.645a.422.422,0,0,1-.416-.492l.56-3.359Z" transform="translate(-1.088 -0.622)"/></g></g></g></svg>