<svg xmlns="http://www.w3.org/2000/svg" width="106.657" height="21" viewBox="0 0 106.657 21"><defs><style>.a,.b{fill:#042d61;}.a{font-size:18px;font-family:DINAlternate-Bold, DIN Alternate;font-weight:700;}</style></defs><g transform="translate(-4972.654 -2013.986)"><g transform="translate(4972.654 2013.986)"><text class="a" transform="translate(106.657 17)"><tspan x="-77.818" y="0">ARGININA</tspan></text><g transform="translate(0)"><path class="b" d="M11.922,2.534a.422.422,0,0,1-.422-.422V.422a.422.422,0,0,1,.845,0V2.111A.422.422,0,0,1,11.922,2.534Z" transform="translate(-1.788 0)"/><path class="b" d="M18.64,5.407a.422.422,0,0,1-.3-.72l1.194-1.194a.422.422,0,1,1,.6.6L18.938,5.283A.421.421,0,0,1,18.64,5.407Z" transform="translate(-2.833 -0.524)"/><path class="b" d="M23.111,12.345H21.422a.422.422,0,1,1,0-.845h1.689a.422.422,0,0,1,0,.845Z" transform="translate(-3.265 -1.788)"/><path class="b" d="M19.834,20.257a.424.424,0,0,1-.3-.123l-1.194-1.194a.422.422,0,0,1,.6-.6l1.194,1.194a.422.422,0,0,1-.3.72Z" transform="translate(-2.833 -2.833)"/><path class="b" d="M11.922,23.534a.422.422,0,0,1-.422-.422V21.422a.422.422,0,1,1,.845,0v1.689A.422.422,0,0,1,11.922,23.534Z" transform="translate(-1.788 -3.265)"/><path class="b" d="M3.79,20.257a.422.422,0,0,1-.3-.72l1.194-1.194a.422.422,0,0,1,.6.6L4.088,20.133A.421.421,0,0,1,3.79,20.257Z" transform="translate(-0.524 -2.833)"/><path class="b" d="M2.111,12.345H.422a.422.422,0,0,1,0-.845H2.111a.422.422,0,1,1,0,.845Z" transform="translate(0 -1.788)"/><path class="b" d="M4.985,5.407a.424.424,0,0,1-.3-.123L3.492,4.089a.422.422,0,0,1,.6-.6L5.283,4.686a.422.422,0,0,1-.3.72Z" transform="translate(-0.524 -0.524)"/><path class="b" d="M10.017,17.512a.43.43,0,0,1-.148-.026.422.422,0,0,1-.271-.451l.72-5.434h-2.9a.422.422,0,0,1-.338-.676l5.067-6.756a.423.423,0,0,1,.755.323l-.763,4.576h2.88a.422.422,0,0,1,.372.222.426.426,0,0,1-.019.433l-5.005,7.6a.424.424,0,0,1-.353.189ZM8.267,10.756H10.8a.423.423,0,0,1,.419.478l-.541,4.086,3.561-5.408H11.645a.422.422,0,0,1-.416-.492l.56-3.359Z" transform="translate(-1.088 -0.622)"/></g></g></g></svg>