<svg xmlns="http://www.w3.org/2000/svg" width="157.771" height="39.583" viewBox="0 0 157.771 39.583"><defs><style>.a{fill:#00316a;}.b{fill:#00316b;}.c{fill:#babbbd;}.d{fill:#babbbc;}.e{fill:#fefefe;}.f{fill:#bbbcbd;}.g{fill:#bebfc0;}.h{fill:#babcbd;}.i{fill:#bdbec0;}.j{fill:#bbbcbe;}.k{fill:#babcbe;}.l{fill:#bcbdbf;}.m{fill:#cacbcc;}.n{fill:#c8cacb;}.o{fill:#c9cacb;}.p{fill:#cccdce;}.q{fill:#003e7e;}.r{fill:#c1e6f8;}.s{fill:#00336e;}.t{fill:#00346f;}.u{fill:#003c7a;}.v{fill:#003c7b;}.w{fill:#003977;}.x{fill:#003673;}.y{fill:#003876;}.z{fill:#00336d;}.aa{fill:#003773;}.ab{fill:#003672;}.ac{fill:#003976;}.ad{fill:#003774;}.ae{fill:#003470;}.af{fill:#003571;}.ag{fill:#003b7a;}.ah{fill:#003e7d;}.ai{fill:#003572;}.aj{fill:#003a78;}</style></defs><g transform="translate(0)"><path class="a" d="M594.937,171.463l.254-.347a.555.555,0,0,0-.378-.093,7.285,7.285,0,0,0-8,5.884c-.718,3.078-1.456,6.151-2.176,9.228-.049.208-.1.313-.341.312-2.349-.009-4.7-.006-7.048-.007a1.039,1.039,0,0,1-.144-.024c.318-1.342.631-2.68.951-4.015q1.944-8.12,3.885-16.241c.058-.243.13-.341.4-.34q3.25.017,6.5,0c.285,0,.34.055.285.346-.134.71-.219,1.43-.328,2.174a2.044,2.044,0,0,0,.608-.472.583.583,0,0,1,.386-.305,11.651,11.651,0,0,1,3.495-1.776,11.022,11.022,0,0,1,5.754.047c.221.058.245.145.153.347-.295.646-.57,1.3-.881,2.015a4.6,4.6,0,0,0,.882-.49c.162-.137.309-.3.548-.3a20.1,20.1,0,0,1,5.1-1.668,26.558,26.558,0,0,1,6.278-.3,31.13,31.13,0,0,1,8.509,1.715c.194.068.327.112.256.4-1.5,5.965-2.97,11.937-4.488,17.9a13.469,13.469,0,0,1-2.659,5.34,11.151,11.151,0,0,1-6.268,3.723,23.262,23.262,0,0,1-12.907-.574,12.467,12.467,0,0,1-1.982-.913c-.209-.114-.289-.191-.127-.43q1.348-1.99,2.659-4c.142-.218.247-.173.43-.08a14.625,14.625,0,0,0,7.356,1.6,6.956,6.956,0,0,0,6.185-4.312c-.058-.226.116-.37.193-.548a3.641,3.641,0,0,0,.235-.86,16.32,16.32,0,0,1-2.658,1.282,12.808,12.808,0,0,1-5.505.626,8.684,8.684,0,0,1-4.049-1.285,7.278,7.278,0,0,1-3.45-5.5,11.293,11.293,0,0,1,1.8-7.667A.528.528,0,0,1,594.937,171.463Z" transform="translate(-535.278 -156.312)"/><path class="a" d="M1284.688,59.07h4.766l-.81,3.339.737-.61a.788.788,0,0,1,.474-.366,16.44,16.44,0,0,1,7.223-2.865,13.849,13.849,0,0,1,9.741,1.771,8.3,8.3,0,0,1,4.013,5.8,10.9,10.9,0,0,1-1.355,7.2,13.123,13.123,0,0,1-7.27,5.972,16.539,16.539,0,0,1-10.663.448,9.94,9.94,0,0,1-5.858-4.35,8.271,8.271,0,0,1-1.119-5.138,11.543,11.543,0,0,1,2-5.474.558.558,0,0,1,.287-.389c.084-.14.237-.239.273-.452-1.185,0-2.354,0-3.523,0-.351,0-.779-.1-1.03.061s-.217.636-.3.973q-1.707,7.171-3.4,14.347c-.061.262-.153.371-.454.369q-3.366-.025-6.733,0c-.344,0-.367-.09-.295-.393q1.71-7.13,3.4-14.265c.018-.076.022-.155.032-.232a.768.768,0,0,1,.126-.482c.13-.291.061-.393-.28-.386-1.083.021-2.167,0-3.25.013-.271,0-.326-.053-.255-.33q.543-2.116,1.038-4.244c.057-.242.144-.311.385-.308,1.1.013,2.193,0,3.289.011.262,0,.377-.047.44-.337a15.856,15.856,0,0,1,1.34-4.02,8.7,8.7,0,0,1,6.105-4.75,16.044,16.044,0,0,1,7.628.1,10.6,10.6,0,0,1,3.42,1.669c.24.171.224.264.03.458q-1.651,1.644-3.276,3.314c-.2.2-.32.235-.569.065a5.21,5.21,0,0,0-3.952-.816,3.334,3.334,0,0,0-2.553,1.912,15.7,15.7,0,0,0-.779,2.391h.574A.341.341,0,0,1,1284.688,59.07Z" transform="translate(-1174.94 -49.568)"/><path class="a" d="M288.173,167.807a3.742,3.742,0,0,0-2.3-.943,14.012,14.012,0,0,0-8.25,1.288c-.512.238-.514.232-.84-.233l-2.324-3.311a19.913,19.913,0,0,1,3.709-1.561A23.557,23.557,0,0,1,288.4,162.1a9.366,9.366,0,0,1,5.085,2.013,6.112,6.112,0,0,1,2.136,4.608,14.839,14.839,0,0,1-.649,4.193c-.794,3.327-1.605,6.65-2.392,9.979-.07.3-.191.358-.467.357-2.049-.011-4.1-.017-6.148,0-.355,0-.422-.12-.371-.415a1.464,1.464,0,0,1-.017-.56,3.182,3.182,0,0,0,.075-.655c-.284.179-.529.378-.789.554a10.635,10.635,0,0,1-4.929,1.715,10.275,10.275,0,0,1-4.883-.532,3.466,3.466,0,0,1-1.59-.943,5.552,5.552,0,0,1-2.052-2.915,6.45,6.45,0,0,1,2.488-6.843,12.894,12.894,0,0,1,5.543-2.272,26.843,26.843,0,0,1,7.09-.26c.559.044,1.118.083,1.676.136.135.013.23.007.268-.142a2.544,2.544,0,0,0-.07-2.009A.5.5,0,0,1,288.173,167.807Z" transform="translate(-253.328 -153.111)"/><path class="a" d="M54.375,66.064c.151-.452.151-.453-.308-.453H43.186c.3-1.226.584-2.412.873-3.6.142-.581.325-1.155.421-1.744.06-.368.231-.408.543-.408q10.634.011,21.269.006c2.755,0,5.51,0,8.265-.007.309,0,.359.054.281.361q-.642,2.514-1.231,5.042c-.071.308-.2.352-.474.352-3.46-.007-6.92,0-10.38-.013-.351,0-.477.091-.56.441Q59.511,77.461,56.8,88.872c-.06.255-.169.318-.421.317q-3.584-.015-7.168,0c-.28,0-.339-.044-.268-.341q2.625-10.929,5.227-21.864c.048-.2.085-.407.128-.61A.3.3,0,0,1,54.375,66.064Z" transform="translate(-43.186 -59.055)"/><path class="a" d="M1778.2,168.057a11.623,11.623,0,0,1,3.5-1.777,11.037,11.037,0,0,1,5.757.049c.228.06.231.156.146.35q-1.082,2.464-2.142,4.937c-.1.226-.18.266-.428.2a8.4,8.4,0,0,0-5.738.336,7.27,7.27,0,0,0-4.061,5.244q-1.109,4.609-2.177,9.227c-.063.274-.179.315-.419.314-2.258-.007-4.516-.012-6.774,0-.325,0-.345-.086-.278-.364q2.3-9.578,4.593-19.158c.088-.363.04-.862.319-1.048.255-.17.706-.051,1.071-.052,1.892,0,3.785,0,5.677-.006.266,0,.355.029.3.337-.136.715-.217,1.441-.326,2.2a2.875,2.875,0,0,0,.6-.488A.58.58,0,0,1,1778.2,168.057Z" transform="translate(-1630.618 -156.806)"/><path class="a" d="M1119.647,170.9c-.743,3.118-1.473,6.193-2.207,9.266q-1.315,5.5-2.63,11.007c-.063.265-.157.35-.435.348q-3.388-.019-6.776,0c-.283,0-.341-.043-.269-.344q2.389-9.942,4.746-19.892c.075-.316.2-.394.518-.392C1114.93,170.909,1117.266,170.9,1119.647,170.9Z" transform="translate(-1023.933 -161.388)"/><path class="b" d="M1180.994,60.316c1.214,0,2.428.008,3.641-.006.279,0,.333.078.269.336-.407,1.641-.812,3.282-1.2,4.928-.059.25-.144.338-.407.337q-3.681-.015-7.362,0c-.279,0-.322-.075-.259-.328q.615-2.48,1.206-4.966a.328.328,0,0,1,.39-.3C1178.513,60.322,1179.753,60.316,1180.994,60.316Z" transform="translate(-1086.93 -59.468)"/><path class="c" d="M144.529,74.891c-1.724,0-3.447.013-5.17-.011-.364-.005-.488.117-.565.448q-1.32,5.656-2.663,11.306-1.19,5.026-2.39,10.05c-.117.493-.251.983-.34,1.481-.042.23-.129.309-.353.309q-3.643-.006-7.286-.005c-.09,0-.241.055-.245-.105,0-.129.092-.208.237-.2.091,0,.183,0,.274,0,2.207,0,4.413-.008,6.62.009.333,0,.442-.113.513-.416q1.424-6.052,2.868-12.1,1.015-4.286,2.022-8.574c.161-.683.339-1.362.47-2.051.067-.349.209-.457.568-.456,3.421.014,6.842,0,10.263.019a.526.526,0,0,0,.622-.493c.355-1.532.742-3.057,1.118-4.584.019-.076.041-.15.06-.226.027-.108.068-.206.206-.181.175.032.141.172.116.279-.122.519-.256,1.035-.383,1.552-.288,1.174-.587,2.345-.854,3.524-.078.345-.224.44-.576.436C147.95,74.879,146.239,74.891,144.529,74.891Z" transform="translate(-119.066 -67.575)"/><path class="d" d="M768.506,223.812a14.637,14.637,0,0,0,2.723,1.136,22.84,22.84,0,0,0,3.854.757,23.889,23.889,0,0,0,3.939.136,17.267,17.267,0,0,0,7.2-1.684,10.846,10.846,0,0,0,4.57-4.466,22.187,22.187,0,0,0,2-5.729q1.919-7.719,3.841-15.437c.035-.141.027-.367.257-.3s.1.259.061.4q-1.974,7.927-3.949,15.853a23.518,23.518,0,0,1-1.713,5.091,10.9,10.9,0,0,1-6.009,5.409,17.334,17.334,0,0,1-4.781,1.042,22.973,22.973,0,0,1-10.313-1.272c-.587-.243-1.147-.551-1.72-.829Z" transform="translate(-711.641 -186.569)"/><path class="c" d="M1778.847,201.325c-1.109,0-2.219,0-3.328,0-.124,0-.333.075-.326-.156s.212-.146.337-.146c2.128,0,4.255-.009,6.383,0,.3,0,.423-.089.494-.394.739-3.162,1.456-6.33,2.262-9.475a7.015,7.015,0,0,1,4.381-5.1,8.321,8.321,0,0,1,3.88-.426,7.294,7.294,0,0,1,1.567.293c.251.082.248-.145.3-.262.491-1.107.971-2.218,1.454-3.329.208-.478.413-.956.621-1.434.052-.119.09-.249.276-.176.211.083.1.213.052.318-.46,1.078-.926,2.153-1.389,3.229-.232.538-.468,1.074-.691,1.616-.1.25-.208.338-.522.27a8.806,8.806,0,0,0-5.838.425,7.029,7.029,0,0,0-3.087,3,14.527,14.527,0,0,0-1.244,3.969c-.585,2.424-1.162,4.85-1.715,7.282-.092.406-.26.515-.655.505C1780.988,201.308,1779.917,201.325,1778.847,201.325Z" transform="translate(-1639.5 -170.428)"/><path class="d" d="M1507.992,256.607c.525.225,1.046.461,1.576.672a13.175,13.175,0,0,0,3.592.831,15.666,15.666,0,0,0,2.223.055,17.42,17.42,0,0,0,6.818-1.6,13.905,13.905,0,0,0,4.181-2.959,11.642,11.642,0,0,0,3.126-6.007,9.776,9.776,0,0,0-.14-4.672c-.091-.3-.2-.589-.308-.883-.03-.083.008-.1.079-.079a7.82,7.82,0,0,1,.8,2.911,11.4,11.4,0,0,1-2.733,8.382,14.293,14.293,0,0,1-7.843,4.683,18.5,18.5,0,0,1-3.778.491,14.444,14.444,0,0,1-5.292-.7,14.211,14.211,0,0,1-2.1-.939.365.365,0,0,1-.2-.175Z" transform="translate(-1393.231 -226.881)"/><path class="c" d="M1120.4,200.808c-1.057,0-2.115.007-3.172-.007-.172,0-.485.121-.5-.106-.016-.3.312-.191.5-.191,2.062-.007,4.124-.014,6.187,0,.357,0,.482-.113.562-.453.758-3.211,1.538-6.417,2.307-9.625q1.058-4.415,2.108-8.832c.1-.4.183-.811.28-1.215.031-.13.083-.274.253-.235.2.045.109.195.08.315q-1,4.188-2,8.376-1.271,5.305-2.546,10.609c-.073.3-.15.607-.2.914-.051.346-.21.463-.571.455C1122.591,200.792,1121.494,200.808,1120.4,200.808Z" transform="translate(-1032.623 -169.911)"/><path class="c" d="M604.156,242.872l-.284.394a2.382,2.382,0,0,0-1.448.033,6.886,6.886,0,0,0-5.508,5.3c-.854,3.157-1.541,6.359-2.286,9.545-.082.35-.216.483-.6.48-2.166-.02-4.332-.01-6.5-.01-.065,0-.131,0-.2,0-.1,0-.222.006-.229-.145s.1-.16.211-.162c.091,0,.183,0,.274,0,2.075,0,4.15,0,6.224,0,.3,0,.438-.048.517-.4.606-2.659,1.25-5.308,1.877-7.962a12.884,12.884,0,0,1,.989-3.154,6.9,6.9,0,0,1,5.2-3.832A8.946,8.946,0,0,1,604.156,242.872Z" transform="translate(-544.498 -227.721)"/><path class="c" d="M1298,238.9l-.288.389c-.031-.022-.062-.063-.094-.063-1-.007-2.009-.008-3.014-.013-.213,0-.237.145-.275.308-.382,1.618-.772,3.235-1.158,4.852q-1.04,4.359-2.078,8.719c-.123.518-.248,1.036-.351,1.558-.047.241-.164.314-.4.313-2.258-.007-4.516,0-6.775-.008-.123,0-.333.079-.328-.153s.21-.149.336-.149c2.115,0,4.229-.014,6.344.007.371,0,.508-.1.592-.462q1.51-6.47,3.05-12.933c.156-.657.326-1.312.465-1.972.061-.288.174-.4.49-.4C1295.676,238.912,1296.838,238.9,1298,238.9Z" transform="translate(-1186.087 -224.059)"/><path class="c" d="M473.462,220.984a7.25,7.25,0,0,1,.649,4.37c-.264,1.935-.844,3.8-1.28,5.7-.526,2.291-1.1,4.571-1.625,6.863-.1.436-.279.544-.7.539-1.971-.023-3.942-.01-5.912-.01-.1,0-.209,0-.313-.009a.122.122,0,0,1-.12-.127c-.005-.089.031-.155.127-.163s.208-.009.313-.009c1.932,0,3.863-.008,5.8.007a.42.42,0,0,0,.5-.391c.871-3.652,1.759-7.3,2.633-10.95a13.814,13.814,0,0,0,.413-2.533,8.062,8.062,0,0,0-.55-3.207C473.353,220.981,473.391,220.966,473.462,220.984Z" transform="translate(-431.177 -207.549)"/><path class="e" d="M300.144,412.3c4.344,2.485,8.415,1.681,12.352-.962l-.138.839a3.557,3.557,0,0,1-1.334.927,11.058,11.058,0,0,1-4.074,1.143,10.675,10.675,0,0,1-3.566-.187,12.385,12.385,0,0,1-1.478-.491,6.461,6.461,0,0,1-.918-.535C300.648,412.854,300.248,412.745,300.144,412.3Z" transform="translate(-280.013 -382.992)"/><path class="f" d="M1189.285,75.531c-1.214,0-2.428,0-3.641,0-.119,0-.335.087-.324-.144.01-.195.207-.158.345-.159,2.3,0,4.594-.009,6.891.007a.464.464,0,0,0,.55-.43c.334-1.456.692-2.906,1.042-4.358a1.843,1.843,0,0,0,.068-.264c.015-.167.1-.235.259-.208.216.038.087.184.066.273-.295,1.238-.6,2.475-.9,3.712-.1.417-.2.834-.289,1.253a.361.361,0,0,1-.428.328C1191.713,75.523,1190.5,75.531,1189.285,75.531Z" transform="translate(-1095.84 -68.368)"/><path class="f" d="M364.583,229.568a.636.636,0,0,1,.229.3,11.218,11.218,0,0,0-5.452-.559,15.474,15.474,0,0,0-4.8,1.421c-.06.025-.119.053-.176.084-.128.069-.2-.014-.253-.1-.077-.122-.01-.195.1-.242a18.143,18.143,0,0,1,4.218-1.376,15.352,15.352,0,0,1,2.644-.169,9.167,9.167,0,0,1,3.349.638C364.489,229.583,364.534,229.617,364.583,229.568Z" transform="translate(-329.738 -214.872)"/><path class="g" d="M63.531,139.015c-.007.107.035.226-.071.31l-9.821,0c-.1,0-.209,0-.313,0s-.216-.019-.2-.168c.01-.122.1-.136.2-.138l.2,0Z" transform="translate(-52.342 -132.006)"/><path class="c" d="M321.073,423.359a10.431,10.431,0,0,0,4.15.708,10.855,10.855,0,0,0,6.139-1.924,1.4,1.4,0,0,1,.208-.106c-.019.182.044.377-.082.543a16.712,16.712,0,0,1-1.982,1,11.652,11.652,0,0,1-3.65.732,10.109,10.109,0,0,1-4.071-.54c-.266-.1-.527-.222-.79-.333C320.976,423.366,320.99,423.328,321.073,423.359Z" transform="translate(-299.223 -392.856)"/><path class="h" d="M843.165,419.016a1.079,1.079,0,0,1-.193.548c-.707.259-1.383.593-2.107.811a10.014,10.014,0,0,1-2.719.438,13.215,13.215,0,0,1-3.874-.3,10.728,10.728,0,0,1-2.3-.959c-.02-.068-.009-.106.073-.072a9.889,9.889,0,0,0,3.641,1.033A12.74,12.74,0,0,0,843.165,419.016Z" transform="translate(-770.168 -390.072)"/><path class="c" d="M1439.379,124.719h-.4a17.156,17.156,0,0,1,.648-1.917,3.464,3.464,0,0,1,3.191-2,5.245,5.245,0,0,1,3.067.717c.109.067.247.1.3.232l0,0a11.31,11.31,0,0,0-1.641-.592,5.238,5.238,0,0,0-2.725.156,3.753,3.753,0,0,0-2.282,2.724C1439.478,124.263,1439.434,124.492,1439.379,124.719Z" transform="translate(-1329.63 -115.217)"/><path class="c" d="M1530.986,90.683c.212.114.351.014.5-.138q1.593-1.611,3.2-3.209c.065-.064.129-.129.2-.191.112-.1.21-.06.309.026.127.111.029.18-.043.252-1.167,1.171-2.325,2.351-3.511,3.5-.287.279-.451-.1-.648-.245Z" transform="translate(-1414.425 -84.146)"/><path class="i" d="M1283.524,238.012a1.019,1.019,0,0,1-.127.482c-.107-.14-.262-.093-.4-.093-.717,0-1.434.006-2.15-.008-.142,0-.4.126-.41-.13-.007-.241.249-.169.4-.17.743-.006,1.485,0,2.228,0A.713.713,0,0,0,1283.524,238.012Z" transform="translate(-1183.507 -223.249)"/><path class="j" d="M1504.411,181.75a1.809,1.809,0,0,1-.474.366c.139-.6.276-1.207.42-1.809.029-.12.1-.225.248-.188.188.048.08.175.063.28A6.862,6.862,0,0,0,1504.411,181.75Z" transform="translate(-1389.496 -169.884)"/><path class="k" d="M859.565,181.524a1.443,1.443,0,0,1-.548.3l.386-.934c.052-.127.106-.237.283-.162s.091.181.054.288C859.681,181.182,859.624,181.353,859.565,181.524Z" transform="translate(-795.101 -170.426)"/><path class="l" d="M1922.474,181.266a.9.9,0,0,1-.385.305c.052-.384.1-.768.158-1.152a.17.17,0,0,1,.182-.166c.13.006.121.111.124.2A5.918,5.918,0,0,0,1922.474,181.266Z" transform="translate(-1774.887 -170.015)"/><path class="l" d="M734.471,181.27a.883.883,0,0,1-.386.305c.052-.384.1-.768.158-1.152a.169.169,0,0,1,.182-.166c.13.006.121.111.124.2A5.972,5.972,0,0,0,734.471,181.27Z" transform="translate(-679.957 -170.018)"/><path class="m" d="M1769.75,230.095l-.08.079-.618-1.1A3.213,3.213,0,0,1,1769.75,230.095Z" transform="translate(-1633.841 -215.015)"/><path class="n" d="M311.8,433.448l-.079.077a2.163,2.163,0,0,1-.795-.542Z" transform="translate(-289.952 -402.945)"/><path class="o" d="M576.565,212.82l-.078.079-.462-.78A2.034,2.034,0,0,1,576.565,212.82Z" transform="translate(-534.28 -199.384)"/><path class="p" d="M827.567,422.22l-.073.072a1.073,1.073,0,0,1-.389-.308A.975.975,0,0,1,827.567,422.22Z" transform="translate(-765.69 -392.807)"/><path class="d" d="M1503.325,426.145a.561.561,0,0,1-.4-.244c.205.063.33.1.4.242Z" transform="translate(-1388.566 -396.417)"/><path class="q" d="M670.439,185.746q0,.039,0,.078a8.131,8.131,0,0,1-1.5.087c-.217-.03-.457.04-.665-.077a.847.847,0,0,1-.094-.06c-.118-.1-.218-.018-.319.032a.783.783,0,0,1-.812,0,.619.619,0,0,0-.56-.053,1.412,1.412,0,0,1-.951,0,.56.56,0,0,0-.616.087c-.054.051-.129.115-.2.048s0-.145,0-.219c.027-.218.07-.435.077-.654a.844.844,0,0,0-.7-.974,15.178,15.178,0,0,0-2.18-.354,13.2,13.2,0,0,0-2.638.04,8.086,8.086,0,0,0-4.18,1.653c-.1.079-.216.141-.325.212s-.216.153-.323.1a1.257,1.257,0,0,0-1,.1c-.235.077-.5.178-.733-.055a.106.106,0,0,0-.171.012c-.149.281-.342.153-.524.059s-.386-.238-.61-.064c-.405-.3-.872.263-1.277-.092-.058-.051-.12.011-.166.057a.27.27,0,0,1-.285.085,2.727,2.727,0,0,0-1.282-.085c-.131.005-.234-.027-.21-.194.358-.529.331-.889-.087-1.224a.368.368,0,0,0-.243-.107,17.162,17.162,0,0,0-3.684.2,7.209,7.209,0,0,0-2.724,1.371c-.479.007-.949.105-1.432.116a5.163,5.163,0,0,0-1.212.036c-.025.007-.066.025-.074.014-.175-.253-.417-.015-.592-.077a2.885,2.885,0,0,0-1.535-.039c-.238.044-.44-.127-.678-.153a6.689,6.689,0,0,0-1.1.145,5.608,5.608,0,0,1-.959-.1c-.033,0-.041-.059-.019-.1.391-1.667.788-3.334,1.169-5,.059-.259.224-.245.409-.245,1.658,0,3.316.007,4.974-.006.325,0,.381.136.327.4a8.124,8.124,0,0,0-.149,1.548.618.618,0,0,0,.333.646.653.653,0,0,0,.76-.108,15.871,15.871,0,0,1,2.013-1.47,9.835,9.835,0,0,1,4.032-1.342,10.017,10.017,0,0,1,2.7.169c.224.037.26.106.168.3-.176.377-.331.764-.5,1.144a.844.844,0,0,0,.124,1.011.8.8,0,0,0,1.044.042,17.424,17.424,0,0,1,6.645-2.47,15,15,0,0,1,2.748-.263c.674.007,1.349-.012,2.023,0a28.407,28.407,0,0,1,4.441.5,34.583,34.583,0,0,1,3.926.988c.336.1.457.22.351.6-.319,1.15-.588,2.315-.877,3.473A.271.271,0,0,0,670.439,185.746Z" transform="translate(-587.566 -169.73)"/><path class="r" d="M891.334,239.315c-.445,1.962-.867,3.929-1.417,5.865a5.387,5.387,0,0,1-4.987,3.763,6.015,6.015,0,0,1-3.053-.458,1.943,1.943,0,0,1-.748-.543c-.916-2.463-.17-4.571,1.436-6.46a7.7,7.7,0,0,1,4.927-2.543,10.687,10.687,0,0,1,3.532.106C891.165,239.069,891.406,239.027,891.334,239.315Z" transform="translate(-815.115 -224.008)"/><path class="s" d="M1015.385,305.16c-.08.379-.187.754-.233,1.137a4.844,4.844,0,0,1-.425.985c-.044.128-.192.053-.269-.007a.681.681,0,0,0-.731-.091.154.154,0,0,1-.115.009c-.423-.241-.868-.007-1.3-.057a7.142,7.142,0,0,0-1.373.06,1.392,1.392,0,0,1-.711-.048c-.219-.091-.473.114-.741.03-.2-.062-.308-.141-.258-.342.14-.561.293-1.118.441-1.677a.812.812,0,0,1,.449-.108c.49.085.987,0,1.478.06.026,0,.061.016.077,0,.313-.233.622-.038.939-.013.35.028.7.041,1.051.085a5.069,5.069,0,0,0,1.391-.14C1015.193,305.027,1015.308,305.015,1015.385,305.16Z" transform="translate(-933.529 -284.991)"/><path class="t" d="M795.241,300.312c-.052.448-.127.9-.151,1.346-.027.516-.194.707-.7.556a8.8,8.8,0,0,0-1.074-.14c-.25-.043-.493.2-.793.109a2.311,2.311,0,0,0-1.1.069,1.942,1.942,0,0,1-.747-.11,1.487,1.487,0,0,0-1,.1.408.408,0,0,1-.62-.389,6.041,6.041,0,0,1,.309-1.856.622.622,0,0,0,.671.29,4.916,4.916,0,0,1,1.368-.048,17.938,17.938,0,0,1,2.006.065.319.319,0,0,0,.162-.016A7.149,7.149,0,0,1,795.241,300.312Z" transform="translate(-730.622 -280.378)"/><path class="u" d="M1023.391,251.971c.153-.06-.061.328.112.122.237-.282.465-.214.727-.132a1.147,1.147,0,0,0,.871,0,.64.64,0,0,1,.669.05.633.633,0,0,0,.758-.014c.143-.086.294-.233.389.05l-.027,0,.015.021.011-.024a5.7,5.7,0,0,1,1.052.128.181.181,0,0,0,.173-.064.358.358,0,0,1,.548-.03c.115.095.278.032.419.044-.073.537-.273,1.042-.391,1.567a.731.731,0,0,1-.592.126,7.292,7.292,0,0,0-1.5.089,5.589,5.589,0,0,1-1.571-.051,3.775,3.775,0,0,0-1.446,0c-.322.057-.518-.009-.612-.326A9.15,9.15,0,0,1,1023.391,251.971Z" transform="translate(-946.237 -236.033)"/><path class="v" d="M630.1,250.616a2.482,2.482,0,0,0,1.458.037,1.493,1.493,0,0,1,1.12.07.286.286,0,0,0,.264,0,.72.72,0,0,1,.708-.037c.262.111.161-.058.046-.187.241-.028.3.2.486.2s.371.239.481-.1c.024-.072.107-.035.17-.011.152.056.005.192.109.3.293-.4.658.082,1.011-.084a.425.425,0,0,1,.552.045c.106.106.3-.181.557-.135a4.262,4.262,0,0,0,.64.052,10.435,10.435,0,0,1-1.175,1.175.83.83,0,0,1-.867.254c-.882-.1-1.756,0-2.632-.017-.491-.01-.986-.017-1.475-.007a6.293,6.293,0,0,0-1.5-.014c-.124.032-.35.065-.268-.217A6.459,6.459,0,0,1,630.1,250.616Z" transform="translate(-583.818 -234.756)"/><path class="t" d="M623.8,302.019a10.445,10.445,0,0,1-.312,1.36.252.252,0,0,1-.36.2.921.921,0,0,0-.867.178c-.141.09-.256.073-.327-.067-.132-.26-.389.014-.5-.112-.246-.27-.284.016-.4.115-.09.078-.2.164-.315.1a2.471,2.471,0,0,0-1.4-.069,5.207,5.207,0,0,1-.933-.12c-.813-.086-.819-.118-.607-.931a2.381,2.381,0,0,1,.223-.814c1.023-.039,2.047.014,3.07.011a2.708,2.708,0,0,0,1.381-.1c.076-.041.141.044.21.078a.663.663,0,0,0,.567.047A.51.51,0,0,1,623.8,302.019Z" transform="translate(-572.655 -282.007)"/><path class="v" d="M805.837,250.09c.044.045.124.133.127.13.265-.227.6.119.866-.105.075-.063.181,0,.254.054.213.151.4.234.543-.086.031-.069.165-.1.2-.025.193.458.469.083.7.08.048,0,.112-.058.142-.041.344.191.787-.117,1.107.23.083.09.268.229.31-.084a.146.146,0,0,1,.267-.075c.306.379.646.138.937.032.237-.086.423-.222.671-.042.137.1.3.005.457.012a19.962,19.962,0,0,0-1.413,1.565,5.821,5.821,0,0,1-1.5.09,16.9,16.9,0,0,0-1.969-.061,17.416,17.416,0,0,1-2.585-.073.075.075,0,0,1-.061-.113A5.667,5.667,0,0,1,805.837,250.09Z" transform="translate(-745.213 -234.31)"/><path class="e" d="M873.945,240.586a2.853,2.853,0,0,1-.932-2.118,7.153,7.153,0,0,1,5.854-7.3,10.991,10.991,0,0,1,5.222.154c.229.06.362.144.2.391-.179.108-.354.018-.529-.013a10.089,10.089,0,0,0-5.326.3,6.852,6.852,0,0,0-4.8,5.737,4.316,4.316,0,0,0,.315,2.637C873.976,240.445,874.013,240.514,873.945,240.586Z" transform="translate(-807.996 -216.718)"/><path class="w" d="M626.224,269c.054.266.284.172.363.1.2-.176.351-.085.545-.01a2.885,2.885,0,0,0,1.01.022c.623.013,1.255-.012,1.876,0a9.915,9.915,0,0,1,2.087.048,1.3,1.3,0,0,0,.858-.161l-.862,1.253a1.235,1.235,0,0,1-.765.242c-.645-.012-1.281.154-1.928.123a9.164,9.164,0,0,0-1.2-.112c-.076.006-.176-.045-.23,0-.475.379-.922.027-1.375-.051-.134-.023-.222.057-.333.072-.2.026-.41.043-.36-.272A6.472,6.472,0,0,1,626.224,269Z" transform="translate(-580.25 -251.806)"/><path class="x" d="M622.312,285c.018.166.228.261.263.216.318-.416.659.16.992-.042.148-.09.211.136.292.279.452-.545,1.022-.254,1.556-.236a3.461,3.461,0,0,0,1.43-.057,1.916,1.916,0,0,1,.642,0A3.381,3.381,0,0,0,628.5,285l-.705,1.567c-.31-.148-.618.085-.93,0a13.118,13.118,0,0,0-1.917-.016c-.76-.091-1.524-.024-2.285-.059a.745.745,0,0,0-.524.073c-.112.079-.123-.074-.142-.157A7.816,7.816,0,0,1,622.312,285Z" transform="translate(-576.651 -266.554)"/><path class="x" d="M798.873,286.49c-.3.047-.57.228-.914-.006-.159-.109-.531,0-.749.088-.2.076-.221-.1-.354-.082a12.39,12.39,0,0,1-1.784.006,12.988,12.988,0,0,0-1.661.069c-.267.03-.419-.107-.415-.388a4.777,4.777,0,0,1,.392-1.175,4.559,4.559,0,0,0,2.124.055c.076-.005.157-.063.229-.034a3.935,3.935,0,0,0,1.693.034,1.876,1.876,0,0,1,.767.067,1.069,1.069,0,0,0,.692.009.486.486,0,0,1,.45.025Z" transform="translate(-734.254 -266.557)"/><path class="w" d="M803.956,271.33c-.266-.065-.486.123-.762.119-.4-.006-.771-.256-1.182-.121-.356.117-.742-.023-1.1.112-.036.014-.084.034-.112.021-.7-.347-1.417.08-2.119-.039-.234-.04-.561.12-.681-.249A4.071,4.071,0,0,1,798.55,270c.574.062,1.152.064,1.724.1.805.044,1.6-.095,2.415.014a2.823,2.823,0,0,0,1.323,0,1.725,1.725,0,0,1,.647.045Z" transform="translate(-738.867 -252.729)"/><path class="x" d="M1020.719,289.041c-.24-.172-.526-.006-.7.048a5.535,5.535,0,0,1-1.824,0c-.294,0-.6.106-.81-.268.059.306-.113.314-.294.3a11,11,0,0,0-2.037-.024c-.016,0-.036-.033-.055-.051a7.766,7.766,0,0,1,.314-1.332c.235,0,.482.042.656-.182a.039.039,0,0,1,.036-.012c.222.255.525-.006.753.113a1.019,1.019,0,0,0,.564.079,11.413,11.413,0,0,1,1.811.047,3.83,3.83,0,0,0,1.3.047.649.649,0,0,1,.6.065Z" transform="translate(-938.864 -268.872)"/><path class="y" d="M1024.72,274.488a2.667,2.667,0,0,0-1.027.112c-.033.014-.093.03-.108.014-.333-.34-.794-.131-1.171-.195a3.611,3.611,0,0,0-1.52.018c-.143.039-.323.1-.449-.092-.082-.123-.174-.081-.292,0-.3.213-.312.2-.4-.2-.211.268-.433.483-.751.18a10.207,10.207,0,0,1,.313-1.332.818.818,0,0,0,.707.206,2.456,2.456,0,0,1,1.436.056c.228.127.522,0,.791.022a5,5,0,0,0,1.3-.1c.5-.095,1,.1,1.489-.022Z" transform="translate(-942.553 -255.495)"/><path class="c" d="M879.3,246.08a4.516,4.516,0,0,1-.478-2.253,6.648,6.648,0,0,1,1.55-4.115,7.711,7.711,0,0,1,5.248-2.745,11.274,11.274,0,0,1,4.019.242.347.347,0,0,1-.069.31.179.179,0,0,0-.152-.152,9.379,9.379,0,0,0-7.191,1.2,6.788,6.788,0,0,0-3.1,5.056,4.444,4.444,0,0,0,.274,2.327c.033.076.066.146-.038.192C879.319,246.147,879.3,246.124,879.3,246.08Z" transform="translate(-813.35 -222.211)"/><path class="u" d="M1099.61,251.236c-.051-.007-.121-.012-.118-.072.006-.113.125-.113.2-.163C1099.686,251.087,1099.7,251.179,1099.61,251.236Z" transform="translate(-1016.736 -235.22)"/><path class="q" d="M1316.41,176.249c-.41-.278-.665-.715-1.087-.994a4.973,4.973,0,0,0-2.648-.8,9.617,9.617,0,0,0-2.8.168,7.76,7.76,0,0,0-3.158,1.716c-.058.051-.121.1-.182.146a12.143,12.143,0,0,1-1.269.082c-.5-.057-.982.259-1.467.006-.4.226-.871-.271-1.256.128-.055.057-.129.01-.172-.035a.687.687,0,0,0-.7-.141,3.209,3.209,0,0,1-1.069-.108c-.037,0-.05-.05-.027-.09.172-.338.516-.585.477-1.034s-.182-.609-.629-.61c-1.435,0-2.87,0-4.3,0-.091,0-.183,0-.274,0-.768-.022-.769-.022-.965.748-.089.351-.173.7-.26,1.055-.146.248-.39.1-.57.1a3.357,3.357,0,0,0-1.21.12c-.242.092-.458-.052-.681-.1a.569.569,0,0,0-.478.067c-.216.144-.422.191-.592-.089-.079-.13-.2-.124-.26.033-.054.14-.168.208-.267.114-.453-.429-.922-.183-1.392-.064-.189.048-.391.121-.426-.186a2.523,2.523,0,0,1,.174-.875c.171-.577-.073-.926-.66-.926-.9,0-1.8-.006-2.7,0-.273,0-.371-.049-.289-.36.243-.916.458-1.839.663-2.765.067-.3.178-.422.515-.413,1.03.028,2.062,0,3.093.017a.47.47,0,0,0,.555-.407c.058-.262.144-.518.217-.777.132.164.424.05.509.29.022.062.031.027.069.02a11.119,11.119,0,0,1,2-.185.774.774,0,0,0,.268-.027,1.125,1.125,0,0,1,.9.035,1.519,1.519,0,0,0,.768.038,2.513,2.513,0,0,1,1.285.144c0,.706.159.862.873.862,1.422,0,2.845.011,4.267-.008.339,0,.427.07.336.4-.18.664-.329,1.335-.49,2a.725.725,0,0,0,.318.843.668.668,0,0,0,.885-.057,15.087,15.087,0,0,1,3.245-2.144,16.562,16.562,0,0,1,5.431-1.6,13.286,13.286,0,0,1,2.055-.146,12.566,12.566,0,0,1,7.582,2.666,8.07,8.07,0,0,1,2.266,3.169.722.722,0,0,1,.027.192c-.2.125-.506-.037-.664.247-.041.073-.169,0-.255-.027a.443.443,0,0,0-.412-.007.188.188,0,0,1-.315-.085.131.131,0,0,0-.163-.077c-.311.157-.693-.071-.983.188-.019.017-.056.036-.07.028-.32-.18-.655.061-1-.058a2.07,2.07,0,0,0-1.287-.112A1.679,1.679,0,0,1,1316.41,176.249Z" transform="translate(-1187.939 -160.546)"/><path class="r" d="M1553.234,239.119a3.806,3.806,0,0,1,1.156,2.553,6.693,6.693,0,0,1-5.409,7.231,6.057,6.057,0,0,1-4.354-.536,1.508,1.508,0,0,1-.181-.14c-.121-.126-.287-.212-.3-.426-.008-.189-.22-.195-.322-.3a3.526,3.526,0,0,1-.483-1.553,6.734,6.734,0,0,1,4.535-7.142,6.975,6.975,0,0,1,4.6-.08A3.561,3.561,0,0,1,1553.234,239.119Z" transform="translate(-1425.775 -223.579)"/><path class="s" d="M1374,92.052a3.8,3.8,0,0,1,1.043-1.272c.323-.275.806-.175,1.224-.187.018,0,.053.055.055.085.016.281.175.234.3.107.169-.166.293-.135.474-.016.2.133.455.239.364-.206-.015-.072.011-.137.1-.119.07.014.091.077.1.15.032.435.009.334.375.247a1.976,1.976,0,0,0,.856-.238c.12.158.22.051.328-.02.053-.035.137-.095.174-.077.557.272,1.211-.1,1.761.292.237.17.153-.178.264-.26.265.121.531.433.827.042.436.3.969-.239,1.4.165a.45.45,0,0,0,.416.041.578.578,0,0,1,.446.048.344.344,0,0,0,.374-.006.615.615,0,0,1,.593-.06c.15.045.305.083.377-.139.052-.162.138-.067.237-.016a.826.826,0,0,0,.814.109,2.278,2.278,0,0,1,1.11.078c.189.03.011.293-.092.364a9.548,9.548,0,0,0-.738.76,3.156,3.156,0,0,0-.576.583c-.267.394-.569.36-.9.137a4.505,4.505,0,0,0-2.419-.585,5.245,5.245,0,0,0-2.153.228.547.547,0,0,0-.772-.034c-.175.143-.36.064-.554.018a3.771,3.771,0,0,0-1.216-.086c-.439.045-.9-.237-1.317.082a.119.119,0,0,1-.114,0c-.6-.346-1.24.017-1.865-.086a2.739,2.739,0,0,0-.863.043A.371.371,0,0,1,1374,92.052Z" transform="translate(-1269.739 -87.239)"/><path class="s" d="M1458.693,306.426c-.013.557-.045,1.116-.029,1.672.007.252-.119.346-.29.271-.26-.113-.5.054-.773-.034-.2-.066-.483.109-.729.178-.025.007-.05.034-.071.03-.683-.144-1.4.288-2.065-.117a.3.3,0,0,0-.3.006,2.96,2.96,0,0,1-1,.187c-.163.01-.4.138-.333-.214a.079.079,0,0,0-.1-.087c-.382.117-.279-.188-.253-.331a8.358,8.358,0,0,1,.225-1.562c.349.059.695-.069,1.043-.013a7.278,7.278,0,0,0,1.606-.033c.424-.025.861.109,1.308.079a1.882,1.882,0,0,1,1.173.072C1458.3,306.643,1458.481,306.385,1458.693,306.426Z" transform="translate(-1342.288 -286.258)"/><path class="t" d="M1319.3,302.222c-.12.529-.238,1.058-.363,1.586a.549.549,0,0,1-.563.445c-.323.007-.653-.039-.969-.038a5.1,5.1,0,0,1-1.437-.079c-.423-.126-.715.263-1.094.126-.071-.026-.2,0-.219-.042-.2-.438-.409-.127-.582,0a.732.732,0,0,1-.838.01.463.463,0,0,1-.18-.552,7.214,7.214,0,0,1,.369-1.457,20.665,20.665,0,0,0,2.139.063,2.681,2.681,0,0,0,.57-.072,1.81,1.81,0,0,1,.806.024c.576.1,1.166-.038,1.748.067C1318.889,302.341,1319.061,302.023,1319.3,302.222Z" transform="translate(-1213.547 -282.367)"/><path class="u" d="M1683.005,250c.287.174.672.072.93.333a.131.131,0,0,0,.177,0,1.2,1.2,0,0,1,1.032-.081c.239.07.5-.047.737.186.095.1.276-.281.509-.248.12.094-.125.19.006.264.082.046.177,0,.258-.049a.87.87,0,0,0,.325-.208.669.669,0,0,1,.081-.078c.236.414.517-.024.786.033.24.05.006.249.18.286a.507.507,0,0,1,.667-.04c.043.027.123.073.133.024.11-.51.457-.123.683-.187a3.845,3.845,0,0,1,.39,1.488c.082.253.006.359-.274.35-.829-.026-1.663-.033-2.488-.014a18.068,18.068,0,0,1-1.875-.044,5.274,5.274,0,0,0-.854.079.469.469,0,0,1-.463-.135A5.237,5.237,0,0,0,1683.005,250Z" transform="translate(-1554.535 -234.295)"/><path class="u" d="M1469.005,251a4.931,4.931,0,0,0,1.591.079c.214-.02.187.18.294.251.174-.336.477-.236.718-.173.16.042.284.1.426-.01.02-.016.058-.043.065-.037.379.312.778-.046,1.167.037a4.148,4.148,0,0,0,1.273-.091.568.568,0,0,1,.421.1,10.424,10.424,0,0,0-1.257,1.565,1.81,1.81,0,0,1-1.186.077.915.915,0,0,0-.75.095.346.346,0,0,1-.372.01,2.242,2.242,0,0,0-1.559-.072,9.5,9.5,0,0,1-1.589.088.259.259,0,0,1-.263-.2A6.739,6.739,0,0,1,1469.005,251Z" transform="translate(-1356.36 -235.218)"/><path class="u" d="M1355.777,151.662a7.585,7.585,0,0,0-1.658-.015.532.532,0,0,1-.408-.053.821.821,0,0,0-.935-.019c-.206.116-.386-.044-.587-.039-.408.011-.81.347-1.23.058-.038-.026-.133,0-.185.028-.377.219-.557-.11-.8-.276a7.359,7.359,0,0,1,.316-1.33.56.56,0,0,1,.44-.114,15.355,15.355,0,0,0,2.372-.011c.736-.079,1.458.064,2.188.04a.967.967,0,0,0,.483-.109.29.29,0,0,1,.47.193A14.429,14.429,0,0,1,1355.777,151.662Z" transform="translate(-1247.598 -141.913)"/><path class="z" d="M1697.073,313.86a5.3,5.3,0,0,1-.417,1.4.588.588,0,0,1-.592.423,1,1,0,0,0-.469.175c-.206.119-.359.122-.479-.108-.091-.175-.212-.224-.366-.062-.033.035-.093.092-.114.082a2.852,2.852,0,0,0-1.4-.033.343.343,0,0,1-.222-.045c-.358-.33-.722-.094-1.083-.021-.112.023-.218.077-.33.1-.477.1-.691-.063-.634-.529a4.447,4.447,0,0,1,.307-1.227,1.484,1.484,0,0,0,.95.011,2.584,2.584,0,0,1,1.533.041,1.077,1.077,0,0,0,.547-.021,1.711,1.711,0,0,1,.861,0,.788.788,0,0,0,.5.037.993.993,0,0,1,.818.02c.13.066.27.076.344-.116A.191.191,0,0,1,1697.073,313.86Z" transform="translate(-1561.865 -293.144)"/><path class="u" d="M1326.3,251.608c.109.192.252.191.426.086a1.93,1.93,0,0,1,.82-.18.6.6,0,0,1,.684.384c.048-.3.114-.5.426-.367.059.025.127.018.123.113-.01.3.234.227.311.137a.69.69,0,0,1,.851-.106,1.009,1.009,0,0,0,.765-.065,2.485,2.485,0,0,1,.724-.011,2.1,2.1,0,0,0,.746.012,7.7,7.7,0,0,1-.313,1.332,6.162,6.162,0,0,1-1.613.4c-.2.053-.416-.085-.636-.11a7.949,7.949,0,0,0-1.744.061c-.257.027-.5-.171-.788-.073-.186.063-.4.026-.608.082a.381.381,0,0,1-.487-.435A5.187,5.187,0,0,1,1326.3,251.608Z" transform="translate(-1225.489 -235.671)"/><path class="e" d="M1536.507,240.061c.213.008.387.063.331.332-.04.191.181.234.2.387a4,4,0,0,1-1.711-2.937,6.7,6.7,0,0,1,5.841-7.473,6.2,6.2,0,0,1,3.556.446,1.987,1.987,0,0,1,.876.626c-.158.108-.271-.036-.393-.081a6.747,6.747,0,0,0-6.858.978,6.171,6.171,0,0,0-2.527,5.216,5.356,5.356,0,0,0,.521,2.3C1536.383,239.941,1536.4,240.032,1536.507,240.061Z" transform="translate(-1418.366 -216.132)"/><path class="aa" d="M1323.876,286.15a4.261,4.261,0,0,1-1.359.13,13.076,13.076,0,0,0-1.609-.041,12.919,12.919,0,0,1-1.773.1,2.232,2.232,0,0,1-1.135-.186,5.563,5.563,0,0,1,.313-1.332,5.946,5.946,0,0,1,1.228,0,1.445,1.445,0,0,0,.768-.031,1.531,1.531,0,0,1,.73-.039,2.812,2.812,0,0,0,1.006.007,4.32,4.32,0,0,1,.8.035,4.972,4.972,0,0,0,1-.006.287.287,0,0,1,.344.115A8.691,8.691,0,0,1,1323.876,286.15Z" transform="translate(-1218.126 -266.295)"/><path class="ab" d="M1461.719,289.575c-.3.2-.594.377-.938.059-.133-.123-.258.093-.395.073-.516-.075-1.047.153-1.555-.09-.273-.131-.521.075-.787.1-.589.049-1.174-.2-1.759.008a.225.225,0,0,1-.285-.146,4.581,4.581,0,0,1,.314-1.175c.186-.292.476-.066.716-.124.372-.091.77-.065,1.163-.136s.824,0,1.235-.037c.51-.047,1.009.113,1.507.068a4.263,4.263,0,0,1,1.1-.006A6.973,6.973,0,0,0,1461.719,289.575Z" transform="translate(-1345.314 -269.407)"/><path class="w" d="M1465.724,272.9c-.184.047-.344.192-.562.02-.151-.119-.285.161-.462.122a18.637,18.637,0,0,0-2.69-.1c-.141-.011-.4-.1-.424.206a5.526,5.526,0,0,0-.588-.055c-.331,0-.662.029-.993.046a4.914,4.914,0,0,1,.625-1.489,2.1,2.1,0,0,0,1.211.072,4.655,4.655,0,0,1,1.855-.11c.463.166.808-.081,1.19-.024a8.222,8.222,0,0,0,1.463.062A6.077,6.077,0,0,0,1465.724,272.9Z" transform="translate(-1349.006 -254.144)"/><path class="ac" d="M1695,272.23a1.83,1.83,0,0,0,.87-.014,2.944,2.944,0,0,1,1.386.107c.264.1.486-.111.748-.111a5.026,5.026,0,0,1,.79.034,6.835,6.835,0,0,0,1.589-.039.42.42,0,0,1,.25.019c.264.141.32-.008.322-.232a4.531,4.531,0,0,1,.078,1.489,1.231,1.231,0,0,1-.865.07c-.341-.035-.664.013-.995.01a5.219,5.219,0,0,1-1.316-.066c-.562-.149-1.087.17-1.642.163-.153,0-.3.054-.442-.065-.219-.183-.4.145-.621.059a.169.169,0,0,1-.032-.111c-.02-.176.041-.359-.041-.53Z" transform="translate(-1565.59 -254.569)"/><path class="ac" d="M1359.968,137.44c-.185-.1-.348-.307-.557.01-.09.137-.31-.017-.477-.007a3.437,3.437,0,0,1-1.132-.048,2.938,2.938,0,0,0-1.078.041c-.354.024-.708-.014-1.063.018a15.332,15.332,0,0,1-1.646-.014,4.086,4.086,0,0,1,.468-1.176.58.58,0,0,1,.474-.139,25.211,25.211,0,0,0,2.7.055c.725.05,1.471.046,2.207.037.2,0,.4-.026.494.2Z" transform="translate(-1251.319 -129.337)"/><path class="ad" d="M1365.867,123.421c-.192-.157-.407-.1-.627-.084-.413.03-.818-.095-1.237-.062-.906.071-1.812-.082-2.723.026-.419.05-.856-.114-1.291-.037a6.385,6.385,0,0,1,.471-1.174c.445,0,.891-.018,1.334-.015.591,0,1.191.011,1.785-.032a6.517,6.517,0,0,1,2.26.154c.167.047.3-.045.454-.073.186-.034.4-.1.434.2A10.832,10.832,0,0,0,1365.867,123.421Z" transform="translate(-1256.826 -116.336)"/><path class="w" d="M1327.876,270.406c-.316-.13-.632.132-.941.01-.343-.135-.69.059-1.064-.075-.239-.085-.613.088-.938.033a2.2,2.2,0,0,0-1.2.087.69.69,0,0,1-.449-.032c-.422-.161-.872.113-1.285-.1a7.688,7.688,0,0,1,.313-1.332c.1.34.318.357.621.308.339-.055.715-.23,1.068.005.09.06.208.185.222-.067.005-.093.09-.056.153-.04a2.679,2.679,0,0,0,1.16-.023,2.211,2.211,0,0,1,.8.127.9.9,0,0,0,.434.022c.47-.1.945-.172,1.418-.255Z" transform="translate(-1221.813 -251.805)"/><path class="ae" d="M1372.273,110.9c-.168-.293-.384-.1-.581-.052-.093.022-.166.173-.274.08-.454-.392-1.062,0-1.529-.311a20.772,20.772,0,0,1-2.135.115c-.469.092-.926-.257-1.365.067-.119.088-.23-.153-.384-.135a7.807,7.807,0,0,1,.626-.941,2.328,2.328,0,0,0,1.187,0c.209-.076.52.059.8.037.149-.012.28.043.424-.075a.366.366,0,0,1,.331-.01c.312.175.59.263.89-.036.086-.086.2.094.328.123.336.075.7-.2,1.005.084.233-.318.5-.012.729.006a1.191,1.191,0,0,0,.9-.173.379.379,0,0,1,.536.28A3.969,3.969,0,0,0,1372.273,110.9Z" transform="translate(-1262.37 -104.917)"/><path class="x" d="M1696.477,289.673c.152-.076.3-.153.455-.226.056-.026.127-.087.177-.02.35.464.824.145,1.127.045a2.11,2.11,0,0,1,1.125-.008,8.156,8.156,0,0,0,1.339.021c.263.011.545.03.782.015.294-.018.583.057.871.016a5.045,5.045,0,0,1-.078.94c-.089.057-.044.16-.078.235h0a.252.252,0,0,1-.255.048,4.556,4.556,0,0,0-1.577-.024,4.682,4.682,0,0,1-1.432-.057,2.926,2.926,0,0,0-1.14.059,5.708,5.708,0,0,1-1.157-.088c-.118,0-.192-.138-.19-.264A2.174,2.174,0,0,1,1696.477,289.673Z" transform="translate(-1566.91 -270.602)"/><path class="t" d="M1695.157,291.768c0,.17-.008.34,0,.509.015.244,0,.518.4.335.114-.053.219.1.359.1a3.539,3.539,0,0,0,1.348-.184c.034-.012.086-.032.107-.017a2.258,2.258,0,0,0,1.636.2,6.173,6.173,0,0,1,1.867.075c.04.217-.074.415-.078.627-.051.039-.14.072-.148.119-.082.476-.533.279-.622.2-.2-.181-.3-.041-.454-.011a1.656,1.656,0,0,1-.72-.008c-.3-.07-.656-.179-.939.107-.052.053-.111.042-.178.014a2.591,2.591,0,0,0-2.026-.07c-.159.062-.553.155-.71-.192a10.891,10.891,0,0,0,.079-1.88q.039-.053.078,0Z" transform="translate(-1565.59 -272.697)"/><path class="c" d="M1541.953,245.487c-.2.064-.191-.128-.234-.216a5.578,5.578,0,0,1-.5-3.22,6.486,6.486,0,0,1,2.989-4.724,6.618,6.618,0,0,1,3.907-1.149,5.615,5.615,0,0,1,2.674.606,1.429,1.429,0,0,0,.257.083.54.54,0,0,1,.226.231c-.472-.14-.913-.364-1.4-.477a7,7,0,0,0-7.587,3.32A6.006,6.006,0,0,0,1541.953,245.487Z" transform="translate(-1423.811 -221.558)"/><path class="x" d="M1696.083,285.549h-.078V285C1696.155,285.166,1696.053,285.367,1696.083,285.549Z" transform="translate(-1566.516 -266.556)"/><path class="t" d="M1769.366,303.234c-.043-.1-.127-.216.078-.235C1769.442,303.085,1769.459,303.178,1769.366,303.234Z" transform="translate(-1634.08 -283.144)"/><path class="q" d="M343.608,182.187a2.6,2.6,0,0,0-1.754-2.265,7.87,7.87,0,0,0-2.75-.48c-.535.015-1.071.011-1.606,0a12.382,12.382,0,0,0-5.005,1.018c-.883.366-.878.368-1.411-.412-.36-.526-.718-1.053-1.1-1.561-.135-.179-.13-.249.071-.334a24.663,24.663,0,0,1,6.218-1.856,24.249,24.249,0,0,1,4.152-.29,13.677,13.677,0,0,1,5.412,1.149,5.378,5.378,0,0,1,3.258,4.481.547.547,0,0,1,.035.341c-.007.393-.086.447-.472.332-.088-.026-.188-.085-.262-.028-.348.264-.714.143-1.083.078a1.351,1.351,0,0,0-.582,0,.26.26,0,0,1-.191,0c-.664-.354-1.316-.046-1.968.048-.161.023-.3.091-.422-.056C344,182.186,343.758,182.336,343.608,182.187Z" transform="translate(-307.427 -166.093)"/><path class="r" d="M379.9,323.622a5.047,5.047,0,0,1-4.582,4.373,5.943,5.943,0,0,1-2.637-.069,2.2,2.2,0,0,1-.706-.317,1.628,1.628,0,0,1-.3-1.4,2.683,2.683,0,0,1,1.131-1.763,5.147,5.147,0,0,1,2.105-.895,16.88,16.88,0,0,1,4.708-.12C379.735,323.443,379.893,323.429,379.9,323.622Z" transform="translate(-345.904 -301.879)"/><path class="af" d="M334.062,297.266l-.235,1.018a1,1,0,0,1-.751.137,6.6,6.6,0,0,0-2.056,0c-.327.029-.634-.084-.968-.069a10.619,10.619,0,0,1-1.941.023c-.54-.074-1.078.057-1.612-.028-.671-.106-1.346-.012-2.02-.055a6.937,6.937,0,0,0-1.619.065,18.036,18.036,0,0,0-1.8.157c-.547.1-1.1-.024-1.644.039a6.072,6.072,0,0,1-1.4.029c-.738-.086-1.471.034-2.21-.034-.369-.034-.764.05-1.151.006-.095-.011-.161.074-.229.137s-.168.146-.271.049a.244.244,0,0,1-.03-.292,1.742,1.742,0,0,0,.116-.247,14.689,14.689,0,0,1,1.646-.94,3.135,3.135,0,0,0,1.638.077,5.726,5.726,0,0,1,.971.026,1.562,1.562,0,0,0,.917-.083,1.239,1.239,0,0,1,.726-.051c.409.069.865-.2,1.232.161.025.024.08.017.114,0a2.87,2.87,0,0,1,1.149-.113,1.309,1.309,0,0,1,.646.079.391.391,0,0,0,.337.024.683.683,0,0,1,.534,0,.2.2,0,0,0,.153.016c.62-.3,1.26.048,1.886-.065.848-.154,1.7.043,2.555-.028a10.1,10.1,0,0,1,1.435.071.938.938,0,0,0,.35,0,1.646,1.646,0,0,1,.981-.045,4.977,4.977,0,0,0,1.429.016A3.63,3.63,0,0,1,334.062,297.266Z" transform="translate(-292.867 -277.802)"/><path class="ad" d="M355.179,286.026a5.712,5.712,0,0,1-2.034.165c-.3-.038-.651.2-.894-.168,0,0-.078.044-.121.061a4.207,4.207,0,0,1-2.067.053,5.487,5.487,0,0,0-.764.03,19.764,19.764,0,0,0-2.458.055,1.809,1.809,0,0,1-.65-.076.6.6,0,0,0-.587.079c-.244.211-.482-.129-.749-.007-.2.09-.437-.038-.642-.047a4.3,4.3,0,0,0-1.365.011c-.16.044-.44.359-.552-.088,0-.01-.068-.006-.1-.007a4.628,4.628,0,0,0-1.542.029c-.58.207-1.085-.006-1.61.054a6.253,6.253,0,0,0-1.195.117.889.889,0,0,1-.839-.262,15.633,15.633,0,0,1,3.212-1.018.276.276,0,0,0,.327.15c.759-.124,1.527,0,2.294-.109a4.118,4.118,0,0,1,1.156.036,11.818,11.818,0,0,0,1.753.1c.673,0,1.353,0,2.026-.049.481-.038.962-.017,1.442-.048a2.053,2.053,0,0,0,.389-.023c.231-.06.456-.128.635.114a.2.2,0,0,0,.18.061c.413-.054.837-.006,1.241-.061a10.157,10.157,0,0,1,2.014-.06c.481.029.961-.05,1.442-.065.1,0,.206-.053.3.03A4.948,4.948,0,0,1,355.179,286.026Z" transform="translate(-313.985 -266.563)"/><path class="ac" d="M392.856,272.175a11.323,11.323,0,0,1-1.993.109,7.951,7.951,0,0,0-1.7.086c-.451.083-.944.018-1.416.079-.013,0-.031.005-.038,0-.467-.483-1.01-.06-1.512-.129-.7-.1-1.405.129-2.108-.01a2.273,2.273,0,0,0-.532.044c-.661.027-1.316-.062-1.971-.063a4.649,4.649,0,0,0-1.99.078.159.159,0,0,1-.11.01,3.262,3.262,0,0,0-1.6,0c-.262.024-.3-.063-.236-.281a19.453,19.453,0,0,1,2.272-.314c.2-.1.428.03.627-.078h.783a8.117,8.117,0,0,1,1.724,0h.783c.226.106.479-.024.705.078h.313c.172.1.376-.023.549.078h.47c.117.1.274-.014.392.078.13,0,.259,0,.389,0a.715.715,0,0,0,.773-.616c.027-.109-.025-.24.091-.324a.727.727,0,0,0,.716.277,2.735,2.735,0,0,0,1.049-.1.971.971,0,0,1,.612-.026,4.269,4.269,0,0,0,1.461.04.549.549,0,0,1,.233.008,3.693,3.693,0,0,0,1.414.036A2.89,2.89,0,0,1,392.856,272.175Z" transform="translate(-351.427 -253.652)"/><path class="s" d="M295.509,310a.141.141,0,0,0,.015.036c.138.17-.233.323-.047.443.207.135.145-.211.312-.243.239-.045.454.078.692.057.117-.01.231.064.335-.061a.2.2,0,0,1,.172-.059c.513.231,1.04-.025,1.533.041s.961.013,1.433.068c.369.042.724-.044,1.089-.032q.641.021,1.282.063a7.346,7.346,0,0,0-1.826.715c-.256.169-.5.35-.744.54a1.452,1.452,0,0,1-1.31.376,11.445,11.445,0,0,0-1.335-.1c-.513-.1-1.044.079-1.564-.033-.025-.005-.056.005-.077-.006-.23-.123-.12.558-.424.19-.214-.259-.418.026-.636-.041a.673.673,0,0,0-.641.011A5.283,5.283,0,0,1,295.509,310Z" transform="translate(-274.135 -289.597)"/><path class="s" d="M426,309.954c.028-.026.057-.076.084-.075a14.534,14.534,0,0,1,1.612-.05,1.151,1.151,0,0,0,.381.043,7.081,7.081,0,0,1,1.806-.016,7.616,7.616,0,0,1,1.251-.008,4.193,4.193,0,0,0,1.618-.034,1.96,1.96,0,0,1,.741,0,7.412,7.412,0,0,0,2.062-.018.41.41,0,0,1,.155,0,2.663,2.663,0,0,0,1.258.073c-.06.264-.129.526-.185.792a1.372,1.372,0,0,1-.745.981c-.011-.635-.468-.352-.674-.255a.852.852,0,0,1-.864-.116c-.3-.183-.283-.035-.277.257-.149-.217-.252-.293-.454-.152-.3.207-.669.069-.986.054a2.1,2.1,0,0,1-.9-.142c-.1-.053-.215.037-.323.091a.356.356,0,0,1-.481-.342c.022-.638-.061-.765-.694-.889a11.716,11.716,0,0,0-2.474-.2C427.277,309.964,426.638,309.954,426,309.954Z" transform="translate(-396.009 -289.394)"/><path class="ag" d="M509.485,250.032a1.634,1.634,0,0,1-1.134.107,1.421,1.421,0,0,0-.739-.021,3.531,3.531,0,0,1-1.058-.02,6.63,6.63,0,0,0-.969.03c-.352-.012-.719.236-1.061,0-.053-.037-.1-.086-.172-.048-.328.172-.323-.076-.352-.28a5.2,5.2,0,0,0,.079-1.254c.234.028.53-.164.675.193.008.019.1.027.138.007a2.932,2.932,0,0,1,1.518-.228c.15,0,.362-.234.414-.1.16.413.453.122.67.179.185.048.395.012.571.075a.568.568,0,0,0,.69-.126c.119-.131.237-.042.355.01.378.167.437.13.452-.283,0-.091,0-.183,0-.274a3.26,3.26,0,0,1,.038,1.447C509.578,249.632,509.645,249.861,509.485,250.032Z" transform="translate(-467.898 -232.449)"/><path class="e" d="M364.341,319.755a2.279,2.279,0,0,1,.164-3.169,5.085,5.085,0,0,1,2.992-1.3,17.815,17.815,0,0,1,5.068.074c.335.046.258.206.168.4a.778.778,0,0,1-.6.059,15.355,15.355,0,0,0-4.75.138,4.547,4.547,0,0,0-2.29,1.117,2.358,2.358,0,0,0-.673,2.256C364.439,319.474,364.6,319.657,364.341,319.755Z" transform="translate(-338.659 -294.333)"/><path class="f" d="M369.841,325.038c.127-.262-.065-.49-.086-.738a2.657,2.657,0,0,1,1.658-2.671,6.823,6.823,0,0,1,2.428-.666,14.773,14.773,0,0,1,2.493-.074c.634.023,1.266.1,1.9.156-.013.107.024.227-.076.313a1.917,1.917,0,0,0-.9-.15,19.591,19.591,0,0,0-3.813.138,5.336,5.336,0,0,0-2.424,1,2.41,2.41,0,0,0-.784,3A.778.778,0,0,1,369.841,325.038Z" transform="translate(-344.16 -299.616)"/><path class="ad" d="M426.718,278.859h-1.724A3.9,3.9,0,0,1,426.718,278.859Z" transform="translate(-395.082 -260.806)"/><path class="ad" d="M457.706,279.992c-.234-.034-.484.078-.705-.078C457.235,279.948,457.486,279.836,457.706,279.992Z" transform="translate(-424.581 -261.861)"/><path class="ad" d="M407.623,279.913c-.193.156-.419.044-.627.077C407.189,279.835,407.415,279.946,407.623,279.913Z" transform="translate(-378.494 -261.86)"/><path class="ad" d="M470.55,281.005c-.182-.03-.383.072-.549-.078C470.184,280.957,470.384,280.856,470.55,281.005Z" transform="translate(-436.563 -262.796)"/><path class="ad" d="M483.393,282.047c-.132-.019-.282.052-.392-.078C483.133,281.987,483.283,281.917,483.393,282.047Z" transform="translate(-448.544 -263.759)"/><path class="s" d="M59,95.674c.153-.6.308-1.2.459-1.8.036-.144.113-.265.265-.222a3.433,3.433,0,0,0,1.225-.067.707.707,0,0,1,.337.074,2.523,2.523,0,0,0,1.471.008,7.841,7.841,0,0,0,1.233-.1c.171-.049.285.175.471.15a15.535,15.535,0,0,0,1.771-.119.168.168,0,0,1,.141.024c.291.356.624.156.965.109a3.848,3.848,0,0,1,1.446-.063,3.659,3.659,0,0,0,1.45-.144.532.532,0,0,1,.434.085c.341.295.671.187,1.048.055a2.518,2.518,0,0,1,1.354-.127,2.771,2.771,0,0,0,1.012-.032.709.709,0,0,1,.529.046.362.362,0,0,0,.4.056c.458-.28.309.089.324.344a3.885,3.885,0,0,1,2.126-.3c.344.018.683-.051,1.013-.023a4.1,4.1,0,0,0,1.113-.109,4.8,4.8,0,0,1,1.532.15.552.552,0,0,0,.439-.051.516.516,0,0,1,.649,0,.447.447,0,0,0,.566-.073c.194-.148.3-.171.3.112,0,.082.03.152.1.123.44-.194.934.075,1.368-.166a.2.2,0,0,1,.183.027c.251.274.6.01.885.168.1.055.256-.137.468-.116a8.168,8.168,0,0,0,1.457-.033c.181-.015.348.17.542.01.048-.04.08.08.1.161a1.5,1.5,0,0,1-.1.64,5.165,5.165,0,0,1-.242.97,2.826,2.826,0,0,1-1.234,0,1.447,1.447,0,0,0-.465-.056,31.18,31.18,0,0,1-3.305.006c-.886-.042-1.765.025-2.644.032a23.925,23.925,0,0,0-3.582.047,7.115,7.115,0,0,1-1.318-.018,13.126,13.126,0,0,0-2.836.039c-.345.062-.683-.128-1.043-.111-.841.038-1.684.057-2.526.036a9.926,9.926,0,0,1-1.405-.072.623.623,0,0,0-.38.068.5.5,0,0,1-.516,0c-.257-.144-.547.012-.789.06a5.47,5.47,0,0,1-1.546.014c-.439-.038-.855.066-1.283.05a5.991,5.991,0,0,1-1.049-.083,1.883,1.883,0,0,0-1.007.006.364.364,0,0,1-.23.034A2.123,2.123,0,0,0,59,95.674Z" transform="translate(-57.762 -90)"/><path class="ah" d="M179.879,170.476c-.347,1.5-.691,3-1.042,4.5-.114.487-.245.97-.369,1.455a2.137,2.137,0,0,1-.92-.043c-.192-.013-.346-.055-.482.126-.059.079-.2.155-.26.028-.112-.258-.321-.182-.5-.183a6.377,6.377,0,0,0-1.312.044,5.509,5.509,0,0,1-1.189.087,6.485,6.485,0,0,1-1.362-.1c-.228-.051-.118-.267-.086-.424.143-.894.407-1.76.612-2.64.257-1.107.532-2.21.8-3.314.033-.04,0,.013.022-.032.19-.372.487,0,.675-.1.21-.1.3-.326.615-.107.3.206.719.1,1.085.076.219-.014.432-.113.638.043a.135.135,0,0,0,.15.007c.5-.356,1.035-.007,1.552-.093.264-.044.536.015.784-.16a.574.574,0,0,1,.56.035c.167.074.134.266.088.419C179.9,170.221,179.956,170.358,179.879,170.476Z" transform="translate(-162.187 -160.178)"/><path class="ai" d="M59,116.064a1.42,1.42,0,0,1,1.539-.293.23.23,0,0,0,.148.027,3.349,3.349,0,0,1,1.727.007,6.071,6.071,0,0,0,1.194-.039,3.043,3.043,0,0,1,1.217.071.9.9,0,0,0,.555-.033c.337-.137.73.065,1.024-.208a.1.1,0,0,1,.166.015c.152.3.342.178.536.061s.4-.006.6-.01c.666-.016,1.343-.015,2,.022a7.6,7.6,0,0,1,2.543.111.375.375,0,0,0,.262-.021,1.47,1.47,0,0,1,.6-.122,18.378,18.378,0,0,0,1.963.039,18.541,18.541,0,0,0,2.436-.023,4.187,4.187,0,0,1,1.912.1c.117.05.186-.047.292-.047q1.037,0,2.074-.049c.85-.038,1.7.079,2.542.028a6.342,6.342,0,0,0,1.724-.07c.135-.046.258.044.356.075.47.144.955.009,1.42.127-.083.174-.029.387-.157.549-.111-.031-.211-.115-.335-.088a15.58,15.58,0,0,1-3.023,0c-.58.011-1.153.094-1.73.121-.273.013-.532-.1-.809-.1-.923-.016-1.843-.044-2.767-.013a22.018,22.018,0,0,1-2.293-.071c-.541-.038-1.088.1-1.635.041-1.008-.108-2.008.145-3.03.014a5.109,5.109,0,0,0-1.9-.005.456.456,0,0,1-.12,0,3.755,3.755,0,0,0-1.354.022.466.466,0,0,1-.233,0,8.926,8.926,0,0,0-1.989-.033c-.92,0-1.834.119-2.759.071-.7-.036-1.414-.056-2.126-.022a7.342,7.342,0,0,1-1.883-.083c-.238-.051-.465.077-.692-.016Z" transform="translate(-57.757 -110.389)"/><path class="s" d="M161,305l-.48,2.021a.176.176,0,0,1-.012.037,1.96,1.96,0,0,1-1.138.353,1.617,1.617,0,0,0-1.268-.036c-.071.024-.17.066-.22.037a2.817,2.817,0,0,0-1.53-.234c-.341,0-.652.147-1-.065-.105-.064-.365.134-.557.2s-.317.047-.286-.2c0-.038.032-.1.02-.11-.556-.366.017-.754-.014-1.132a1.813,1.813,0,0,1,.139-.561,1.32,1.32,0,0,1,1.018-.081.121.121,0,0,0,.076.014c.785-.227,1.593.133,2.389-.114.315-.1.677.071,1.035.026C159.783,305.08,160.4,305.135,161,305Z" transform="translate(-145.586 -284.988)"/><path class="u" d="M167.469,251c.007.2-.064.351.306.349a9.3,9.3,0,0,1,1.367.067,3.379,3.379,0,0,0,.835-.082c.6-.042,1.215,0,1.823-.063.22-.022.16.176.161.3a.2.2,0,0,0,.215-.162c.025-.1.119-.2.186-.159.341.232.788-.038,1.11.25.015.013.071-.02.108-.031a10.748,10.748,0,0,1-.314,1.41,1.435,1.435,0,0,1-.929.226,14.8,14.8,0,0,0-1.776,0,6.993,6.993,0,0,1-2.2,0c-.465-.105-.93.045-1.365-.141A14.221,14.221,0,0,1,167.469,251Z" transform="translate(-157.299 -235.214)"/><path class="u" d="M197.121,152.389c.039-.174-.073-.351.022-.532.025-.047-.03-.249-.1-.212-.179.1-.344-.175-.5.01a.325.325,0,0,1-.324.146c-.509-.051-1.035.136-1.533-.1-.011-.005-.033-.009-.038,0-.341.38-.778.052-1.146.158a4.02,4.02,0,0,1-1.079.02c-.239.005-.478-.387-.666.106-.016.043-.138-.036-.2-.085a.373.373,0,0,0-.554.027l.393-1.723c.456-.109.952,0,1.375-.127.354-.1.59.187.939.063a1.54,1.54,0,0,1,.955-.044,5.635,5.635,0,0,0,1.392,0c.255.016.517-.081.76.081a.214.214,0,0,0,.313-.045c.231-.293.346-.172.417.115.009.038.027.074.038.111A11.961,11.961,0,0,1,197.121,152.389Z" transform="translate(-179.429 -142.092)"/><path class="x" d="M165.347,289.713a.925.925,0,0,1-.819.191c-.309-.1-.581.108-.9.069a6.653,6.653,0,0,1-1.065-.061c-.184-.051-.382.126-.614.139-.587.033-1.181-.228-1.759.039-.383-.251-.793-.005-1.186-.064a12.5,12.5,0,0,1,.391-1.567,5.318,5.318,0,0,1,1.465.021c.469.038.928-.031,1.394-.011a9.453,9.453,0,0,1,2.054.067,4.3,4.3,0,0,0,.852-.046c.177.008.34.016.424.2Z" transform="translate(-149.928 -269.702)"/><path class="ab" d="M200.625,122.283c.281-.276.613-.074.917-.084a5.828,5.828,0,0,1,1.579.054c.756.187,1.473-.137,2.231-.022a13.336,13.336,0,0,0,1.636-.031c.695.013,1.4.007,2.1.049.724.044,1.46-.024,2.191-.009.559.011,1.112.07,1.664.115a2.407,2.407,0,0,0,1.032-.035,3.436,3.436,0,0,1,1.119-.066c.414-.03.847.117,1.251.054.356-.055.67.145,1.02.046.145-.041.3-.08.444-.12.194-.052.339-.029.368.207.052.366-.205.313-.423.313H207.206a4.242,4.242,0,0,0-1.782-.09,13.372,13.372,0,0,1-1.868,0c-.6-.025-1.2.05-1.8.037-.287-.006-.573-.032-.86-.04C200.667,122.656,200.527,122.547,200.625,122.283Z" transform="translate(-188.262 -116.452)"/><path class="w" d="M202.209,137.78c-.224-.015-.176-.2-.213-.431-.2.487-.439.535-.782.237-.082-.071-.293,0-.444.016-.206.023-.42.193-.612-.041-.013-.016-.083-.007-.109.013a.651.651,0,0,1-.667.07,1.481,1.481,0,0,0-1.251.122.21.21,0,0,1-.152,0,2.65,2.65,0,0,0-1.543-.073,1.456,1.456,0,0,1-.416-.068,7.387,7.387,0,0,0,.234-1.1.286.286,0,0,1,.279-.179c1.175.117,2.346-.072,3.524-.023a12.833,12.833,0,0,0,2.213.022c.106-.014.32-.089.251.18A5.091,5.091,0,0,1,202.209,137.78Z" transform="translate(-184.047 -129.52)"/><path class="ac" d="M170.185,275.427c-.133-.151-.308-.079-.468-.088a7.2,7.2,0,0,1-1.314-.044,4.88,4.88,0,0,0-1.413-.007,12.565,12.565,0,0,1-1.885,0,5.23,5.23,0,0,1-1.109-.1,3.878,3.878,0,0,1,.235-1.018c.314-.1.666.051.968-.146.032-.021.132,0,.143.02.186.419.52.217.8.184s.515.089.808.05a8.659,8.659,0,0,1,2.24-.021.3.3,0,0,0,.143-.018c.131-.043.3-.29.383.053.061-.014.122-.028.183-.043l.6-.158Z" transform="translate(-154.531 -256.434)"/><path class="aa" d="M200.352,125.175c-.01-.11-.073-.093-.162-.093a5.249,5.249,0,0,1-1.605-.042c-.2-.062-.452.072-.689.059-.485-.025-.97-.028-1.455-.068a2.262,2.262,0,0,0-.771.08c-.344.1-.7-.09-1.053.095-.084.044-.33-.209-.531-.031a.561.561,0,0,0-.392-.706.083.083,0,0,1-.026-.062c0-.023,0-.035.008-.035.138-.156.376-.181.488-.372h.078c.031.231.125.267.383.278a10.162,10.162,0,0,0,1.623.018c.8-.1,1.6.157,2.38.006.556-.107,1.106,0,1.656-.063a.506.506,0,0,1,.539.231C200.428,124.547,200.468,124.914,200.352,125.175Z" transform="translate(-181.877 -118.169)"/><path class="ab" d="M69.116,122.1c.046.374-.3.274-.47.392-.145.1-.326-.024-.47.078h-.157a.233.233,0,0,0-.147-.04c-1.626,0-3.251,0-4.877,0a.233.233,0,0,0-.147.04H62.77a.8.8,0,0,0-.42-.038c-1.337,0-2.674,0-4.011-.008-.114,0-.292.108-.348-.111.011-.108-.037-.231.078-.313a1.5,1.5,0,0,1,1.165-.048c.467.1.917-.076,1.377.055.191.054.441-.051.677-.039.137.007.277.031.416.031a9.56,9.56,0,0,1,1.307.012c.688.1,1.356-.114,2.031-.067.382.026.8-.166,1.082-.086.454.128.884-.114,1.34.1.343.158.794-.115,1.206-.034C68.819,122.045,68.987,121.96,69.116,122.1Z" transform="translate(-56.831 -116.264)"/><path class="ai" d="M120,128.749c.177-.163.405-.089.6-.091,1.454-.011,2.909.005,4.363.013a.237.237,0,0,1,.21.078Z" transform="translate(-113.984 -122.448)"/><path class="ai" d="M57.96,128c.115.128.267.076.4.076,1.324,0,2.648,0,3.972,0,.136,0,.289-.052.4.076-1.5,0-2.992,0-4.488-.007C58.155,128.146,57.928,128.29,57.96,128Z" transform="translate(-56.8 -121.853)"/><path class="ai" d="M188,129.023c.137-.142.313-.052.47-.078,0,.026,0,.052,0,.078Z" transform="translate(-176.657 -122.722)"/><path class="q" d="M1822.529,185.577c.215-.949.427-1.9.647-2.846.141-.607.308-1.208.438-1.817a.3.3,0,0,1,.347-.274c1.7,0,3.394.006,5.091,0,.26,0,.332.117.284.334a12.888,12.888,0,0,0-.183,1.622.558.558,0,0,0,.273.6.642.642,0,0,0,.767.007,16.5,16.5,0,0,1,2.035-1.5,10.014,10.014,0,0,1,4.057-1.383,9.788,9.788,0,0,1,2.743.171c.234.041.24.122.158.31q-.809,1.841-1.6,3.689c-.079.185-.172.117-.305.1a12.718,12.718,0,0,0-5.1.272,8.016,8.016,0,0,0-2.048,1.114,1.518,1.518,0,0,1-1.184.25,16.977,16.977,0,0,1-1.75-.06,5.453,5.453,0,0,0-1.309-.148c-.478.028-.955-.024-1.429.015-.243.02-.46.185-.722.15a2.267,2.267,0,0,1-1.1-.231A.258.258,0,0,1,1822.529,185.577Z" transform="translate(-1683.091 -170.032)"/><path class="s" d="M1810.115,306.3a3.609,3.609,0,0,0-.275,1.082c.032.517-.449.571-.627.881a.589.589,0,0,1-.165-.06,2.128,2.128,0,0,0-1.524.026c-.232.059-.437.157-.632-.075a.3.3,0,0,0-.3-.048,5.168,5.168,0,0,1-1.305.023c-.394-.007-.787.022-1.18.017-.286,0-.3-.277-.253-.474a8.149,8.149,0,0,1,.383-1.451,5.876,5.876,0,0,0,1.4.031c.67,0,1.338.081,2.008.041a.479.479,0,0,0,.3-.081c.119-.1.2-.054.339.01a1.861,1.861,0,0,0,1.015,0C1809.574,306.195,1809.857,306.088,1810.115,306.3Z" transform="translate(-1665.898 -286.054)"/><path class="u" d="M1818.392,248a.481.481,0,0,0,.693.372c.083-.043.17-.1.221.027.079.206.126.267.3.039.156-.207.159.174.33.121a.232.232,0,0,1,.309-.211c.347.061.7-.1,1.049.063.156.072.224-.139.434-.123a7.989,7.989,0,0,0,2.513.187.93.93,0,0,1,.491.078.27.27,0,0,0,.215.013c.336-.136.716-.01,1.048-.173a15.96,15.96,0,0,1-1.411,1.411,10.865,10.865,0,0,0-1.942,0,1.231,1.231,0,0,1-.687-.061c-.047-.025-.113-.05-.15-.021-.56.436-1.161-.021-1.741.084a11.823,11.823,0,0,1-1.517,0,.66.66,0,0,1-.544-.163A9.891,9.891,0,0,1,1818.392,248Z" transform="translate(-1678.954 -232.45)"/><path class="ab" d="M1814.876,291.405a5.268,5.268,0,0,0-1.7.168c-.266.067-.176-.187-.271-.275a1.224,1.224,0,0,1-1.146.177,2.176,2.176,0,0,0-.737-.018c-.591.039-1.18-.058-1.766.022-.117.016-.245.02-.26-.152a4.789,4.789,0,0,1,.313-1.332c.093.044.178.151.281.119.469-.146.953.033,1.42-.081a.97.97,0,0,1,.386,0,9.9,9.9,0,0,0,1.935.027,6.214,6.214,0,0,1,1.262.056c.224.036.458-.176.67.033C1815.213,290.594,1814.891,290.951,1814.876,291.405Z" transform="translate(-1670.659 -271.159)"/><path class="y" d="M1818.938,278.174c-.161.023-.341-.06-.481.091-.079.085-.157.065-.231-.021-.1-.12-.206-.117-.339-.025-.214.148-.4-.08-.63-.06a8.061,8.061,0,0,1-2.375-.036c-.133-.027-.3.121-.434.094a3.387,3.387,0,0,0-1.239.033c-.171.028-.236-.072-.225-.233a2.941,2.941,0,0,1,.235-1.018c.489.4,1.061.134,1.592.193.149.017.307-.048.45.051.051.036.124.09.168.017.176-.287.406-.163.645-.117a2.04,2.04,0,0,0,.7-.017c.064-.01.13-.052.19-.037.614.157,1.233-.085,1.847.026a1.047,1.047,0,0,0,.348-.013c.134-.02.263-.023.329.131Z" transform="translate(-1674.329 -259.181)"/><path class="aj" d="M1822.241,269.852a4.95,4.95,0,0,0-1.613.015,1.06,1.06,0,0,1-.551-.038c-.442-.064-.88.126-1.311.032-.251-.055-.456-.138-.569.178a.068.068,0,0,1-.062.022c-.618-.335-1.266-.094-1.9-.1-.264,0-.04-.333-.261-.345a1.325,1.325,0,0,1,.157-.627,17.583,17.583,0,0,0,2.6.069.685.685,0,0,1,.365.068c.086.047.241.1.291.059.455-.368.971-.1,1.451-.14a7.671,7.671,0,0,1,1.662-.017c.1.013.177.014.213.119C1822.63,269.434,1822.359,269.592,1822.241,269.852Z" transform="translate(-1677.084 -251.8)"/><path class="q" d="M1163.818,190.127c.16-.961.43-1.9.648-2.845.16-.7.351-1.384.506-2.08.044-.2.13-.248.316-.247q2.682.007,5.364,0c.24,0,.281.067.225.294-.253,1.033-.489,2.071-.734,3.107-.147.618-.3,1.235-.451,1.852a.264.264,0,0,1-.38.206.671.671,0,0,0-.523.046.941.941,0,0,1-.684.038,2.261,2.261,0,0,0-1.076-.081.93.93,0,0,1-.346-.028.618.618,0,0,0-.561.058.153.153,0,0,1-.106.045c-.478-.084-.959.2-1.434-.013a.638.638,0,0,0-.418,0C1163.816,190.554,1163.772,190.5,1163.818,190.127Z" transform="translate(-1076.009 -174.346)"/><path class="t" d="M1153.481,301.39a10.3,10.3,0,0,1-.316,1.36c-.158.609-.294.6-.868.372-.2-.082-.328-.184-.544,0a.512.512,0,0,1-.567-.022.622.622,0,0,0-.885.013.293.293,0,0,1-.292.071c-.338-.108-.683.029-1.031-.056a1.151,1.151,0,0,0-.791.1.615.615,0,0,1-.867-.62,5.538,5.538,0,0,1,.363-1.609.883.883,0,0,0,.659.182,3.7,3.7,0,0,1,1.162.056c.512.1.991-.173,1.5-.109.758.1,1.525.082,2.285.15A.224.224,0,0,1,1153.481,301.39Z" transform="translate(-1060.814 -281.3)"/><path class="ag" d="M1159.014,250.994c-.016.249.059.411.331.258.313-.177.571.152.856.067.384-.115.821.105,1.171-.2a.216.216,0,0,1,.222-.014,3.739,3.739,0,0,0,1.225.043c.307-.007.562.217.881.153a.649.649,0,0,0,.322-.1.331.331,0,0,1,.428-.042.292.292,0,0,0,.438-.09,19.253,19.253,0,0,1-.469,1.88c-.154.174-.384.118-.542.091a16.044,16.044,0,0,0-2.7-.041,2.481,2.481,0,0,0-1.25.093.188.188,0,0,1-.154,0,1.583,1.583,0,0,0-.85-.074c-.249.025-.4-.1-.3-.382A6.749,6.749,0,0,1,1159.014,250.994Z" transform="translate(-1071.205 -235.214)"/><path class="aa" d="M1157.778,288.825c-.6-.032-1.193-.08-1.791-.089a6.137,6.137,0,0,1-.628-.087c-.484-.057-.923.22-1.4.127-.582-.114-1.175-.035-1.76-.1-.167-.019-.234-.081-.223-.241a3.95,3.95,0,0,1,.235-1.018,1.885,1.885,0,0,0,.886-.03,13.154,13.154,0,0,1,1.745.028,24.108,24.108,0,0,1,2.588.049c.225.037.453-.195.656.032Z" transform="translate(-1065.111 -268.735)"/><path class="ac" d="M1160.876,273.325a2.512,2.512,0,0,1-1.263.04c-.613-.118-1.2.074-1.814-.011a6.426,6.426,0,0,0-1.646,0c-.271.034-.547-.091-.8.148-.051.048-.189-.218-.353-.25a5.644,5.644,0,0,1,.313-1.254c.079.342.342.425.68.2.088-.06.085-.121.171.022a.387.387,0,0,0,.5.143,1.394,1.394,0,0,1,1.124-.085c.256.049.545-.08.8-.036.356.06.714-.144,1.058.04.011.006.029.016.036.012.481-.3.949.18,1.427.022A5.009,5.009,0,0,1,1160.876,273.325Z" transform="translate(-1067.897 -254.567)"/><path class="t" d="M1191.005,100.233c.183-.441.139-.95.413-1.366.039-.059.023-.186.126-.154.4.122.816-.171,1.2.071.085.053.144-.017.2-.068.04-.034.107-.1.119-.09.354.249.665-.139,1.013-.063.181.04.373.094.545.135.484.113,1.01-.269,1.451.139a.1.1,0,0,0,.138-.024c.234-.287.5-.146.776-.08a.957.957,0,0,0,.835-.167,12.816,12.816,0,0,1-.4,1.823,1.153,1.153,0,0,0-1.009-.143.5.5,0,0,1-.309.014,4.458,4.458,0,0,0-1.616-.1,14.493,14.493,0,0,0-2.209.125A2.37,2.37,0,0,1,1191.005,100.233Z" transform="translate(-1101.08 -94.715)"/><path class="ai" d="M1189.7,117.652c.557-.116,1.121.017,1.695-.109a8.036,8.036,0,0,1,1.771-.081,6.564,6.564,0,0,1,1.691.106c.32.087.666-.169,1.018-.005.127.059.24.086.249.246,0,.352-.145.483-.521.479-1.857-.02-3.715-.009-5.573-.009-.5,0-.5,0-.367-.476C1189.676,117.753,1189.687,117.7,1189.7,117.652Z" transform="translate(-1099.774 -112.134)"/><path class="q" d="M1069.822,253.922c-.082.119-.146.178-.25.138-.016-.006-.036-.046-.031-.058C1069.6,253.875,1069.72,253.953,1069.822,253.922Z" transform="translate(-989.131 -237.912)"/><path class="ah" d="M219.383,170.571c-.007-.056.008-.1.051-.088.025,0,.05.048.061.079s-.019.043-.031.065Z" transform="translate(-205.577 -161.008)"/><path class="q" d="M1846.662,254.153c-.021.065-.057.117-.132.111a.117.117,0,0,1-.118-.122c0-.068.059-.076.109-.079C1846.586,254.06,1846.648,254.07,1846.662,254.153Z" transform="translate(-1705.139 -238.042)"/></g></svg>