<svg xmlns="http://www.w3.org/2000/svg" width="136.808" height="24.162" viewBox="0 0 136.808 24.162"><defs><style>.a{font-size:20px;font-family:DINAlternate-Bold, DIN Alternate;font-weight:700;}.b{fill:#042d61;}</style></defs><g transform="translate(0 -1.307)"><text class="a" transform="translate(136.808 20.468)"><tspan x="-87.363" y="0">Vitamina c</tspan></text><g transform="translate(0 1.307)"><path class="b" d="M27.2,47.944a7.49,7.49,0,0,0-8.276-1.576.574.574,0,1,0,.457,1.054,6.34,6.34,0,0,1,7.007,10.3L22.216,61.9l-8.965-8.965L15.6,50.583a.574.574,0,0,0-.812-.812L7.453,57.106a7.486,7.486,0,0,0-2.18,4.866A6.416,6.416,0,0,0,.621,61.44a.574.574,0,0,0-.407.407A6.4,6.4,0,0,0,8.04,69.672l0,0,.044-.014.044.014,0,0a6.39,6.39,0,0,0,3.067.055,7.562,7.562,0,0,0,1.555.163,7.452,7.452,0,0,0,5.282-2.2L27.2,58.533a7.5,7.5,0,0,0,0-10.589ZM6.4,68.739a5.239,5.239,0,0,1-5.148-6.267A5.239,5.239,0,0,1,7.5,67.918L5.368,65.782a.574.574,0,0,0-.812.812L6.692,68.73C6.593,68.735,6.494,68.739,6.4,68.739Zm3.09-.009,2.136-2.136a.574.574,0,0,0-.812-.812L8.673,67.918a5.239,5.239,0,0,1,6.257-5.445A5.239,5.239,0,0,1,9.485,68.73Zm7.744-1.847A6.314,6.314,0,0,1,13.507,68.7a6.337,6.337,0,0,0,.8-.678,6.412,6.412,0,0,0,1.654-6.171.574.574,0,0,0-.407-.407,6.38,6.38,0,0,0-7.468,3.53,6.362,6.362,0,0,0-1.3-1.876c-.12-.12-.245-.235-.374-.344a6.339,6.339,0,0,1,1.847-4.832l4.175-4.175L21.4,62.708Z" transform="translate(0.001 -45.75)"/><path class="b" d="M287.009,82.184a.574.574,0,1,0-.406-.168A.579.579,0,0,0,287.009,82.184Z" transform="translate(-269.988 -79.01)"/></g></g></svg>