<svg xmlns="http://www.w3.org/2000/svg" width="20.825" height="17.103" viewBox="0 0 20.825 17.103"><defs><style>.a{fill:#042d61;}</style></defs><g transform="translate(0 0)"><path class="a" d="M19.273,47.3a5.306,5.306,0,0,0-5.863-1.116.407.407,0,0,0,.324.746,4.492,4.492,0,0,1,4.964,7.3L15.74,57.189,9.388,50.838l1.663-1.663a.407.407,0,1,0-.575-.575l-5.2,5.2a5.3,5.3,0,0,0-1.545,3.448,4.546,4.546,0,0,0-3.3-.377.407.407,0,0,0-.288.288A4.531,4.531,0,0,0,5.7,62.7h0l.031-.01.031.01h0a4.528,4.528,0,0,0,2.173.039,5.359,5.359,0,0,0,1.1.115A5.28,5.28,0,0,0,12.782,61.3l6.491-6.491a5.311,5.311,0,0,0,0-7.5ZM4.53,62.037A3.712,3.712,0,0,1,.883,57.6a3.712,3.712,0,0,1,4.433,3.858L3.8,59.942a.407.407,0,0,0-.575.575l1.513,1.513C4.671,62.035,4.6,62.037,4.53,62.037Zm2.189-.006,1.513-1.513a.407.407,0,1,0-.575-.575L6.144,61.456A3.712,3.712,0,0,1,10.578,57.6,3.712,3.712,0,0,1,6.72,62.031Zm5.487-1.309a4.473,4.473,0,0,1-2.638,1.285,4.49,4.49,0,0,0,.568-.481,4.543,4.543,0,0,0,1.172-4.372.407.407,0,0,0-.288-.288,4.52,4.52,0,0,0-5.291,2.5,4.507,4.507,0,0,0-.919-1.329c-.085-.085-.174-.166-.265-.244a4.491,4.491,0,0,1,1.308-3.424l2.958-2.958,6.351,6.351Z" transform="translate(0.001 -45.75)"/><path class="a" d="M286.842,81.85a.407.407,0,1,0-.288-.119A.41.41,0,0,0,286.842,81.85Z" transform="translate(-274.783 -79.601)"/></g></svg>