<svg xmlns="http://www.w3.org/2000/svg" width="28.388" height="40.667" viewBox="0 0 28.388 40.667"><defs><style>.a{fill:#1a4687;}.b,.c{stroke:none;}.c{fill:#fff;}</style></defs><g class="a" transform="translate(-6731.056 2059.5)"><path class="b" d="M 6757.85400390625 -2019.582397460938 L 6756.2646484375 -2019.582397460938 L 6748.50927734375 -2019.582397460938 L 6748.1552734375 -2019.582397460938 L 6747.93017578125 -2019.855590820312 L 6732.419921875 -2038.689208984375 L 6732.02734375 -2039.166015625 L 6732.419921875 -2039.642822265625 L 6747.93017578125 -2058.476318359375 L 6748.1552734375 -2058.74951171875 L 6748.50927734375 -2058.74951171875 L 6756.2646484375 -2058.74951171875 L 6757.85400390625 -2058.74951171875 L 6756.84375 -2057.522705078125 L 6741.7255859375 -2039.166015625 L 6756.84375 -2020.809204101562 L 6757.85400390625 -2019.582397460938 Z"/><path class="c" d="M 6748.50927734375 -2057.99951171875 L 6732.9990234375 -2039.166015625 L 6748.50927734375 -2020.33251953125 L 6756.2646484375 -2020.33251953125 L 6740.75390625 -2039.166015625 L 6756.2646484375 -2057.99951171875 L 6748.50927734375 -2057.99951171875 M 6747.80126953125 -2059.49951171875 L 6748.50927734375 -2059.49951171875 L 6756.2646484375 -2059.49951171875 L 6759.443359375 -2059.49951171875 L 6757.42236328125 -2057.0458984375 L 6742.697265625 -2039.166015625 L 6757.42236328125 -2021.2861328125 L 6759.443359375 -2018.83251953125 L 6756.2646484375 -2018.83251953125 L 6748.50927734375 -2018.83251953125 L 6747.80126953125 -2018.83251953125 L 6747.3515625 -2019.37890625 L 6731.84130859375 -2038.21240234375 L 6731.0556640625 -2039.166015625 L 6731.84130859375 -2040.11962890625 L 6747.3515625 -2058.953125 L 6747.80126953125 -2059.49951171875 Z"/></g></svg>