<svg xmlns="http://www.w3.org/2000/svg" width="28.388" height="40.667" viewBox="0 0 28.388 40.667"><defs><style>.a{fill:#1a4687;}.b,.c{stroke:none;}.c{fill:#fff;}</style></defs><g class="a" transform="translate(-6729.82 2059.5)"><path class="b" d="M 6741.10888671875 -2019.582397460938 L 6740.7548828125 -2019.582397460938 L 6732.9990234375 -2019.582397460938 L 6731.40966796875 -2019.582397460938 L 6732.419921875 -2020.809204101562 L 6747.5380859375 -2039.166015625 L 6732.419921875 -2057.522705078125 L 6731.40966796875 -2058.74951171875 L 6732.9990234375 -2058.74951171875 L 6740.7548828125 -2058.74951171875 L 6741.10888671875 -2058.74951171875 L 6741.333984375 -2058.476318359375 L 6756.84375 -2039.642822265625 L 6757.236328125 -2039.166015625 L 6756.84375 -2038.689208984375 L 6741.333984375 -2019.855590820312 L 6741.10888671875 -2019.582397460938 Z"/><path class="c" d="M 6732.9990234375 -2057.99951171875 L 6748.509765625 -2039.166015625 L 6732.9990234375 -2020.33251953125 L 6740.7548828125 -2020.33251953125 L 6756.2646484375 -2039.166015625 L 6740.7548828125 -2057.99951171875 L 6732.9990234375 -2057.99951171875 M 6729.8203125 -2059.49951171875 L 6732.9990234375 -2059.49951171875 L 6740.7548828125 -2059.49951171875 L 6741.462890625 -2059.49951171875 L 6741.91259765625 -2058.953125 L 6757.42236328125 -2040.119506835938 L 6758.2080078125 -2039.166015625 L 6757.42236328125 -2038.212524414062 L 6741.91259765625 -2019.37890625 L 6741.462890625 -2018.83251953125 L 6740.7548828125 -2018.83251953125 L 6732.9990234375 -2018.83251953125 L 6729.8203125 -2018.83251953125 L 6731.84130859375 -2021.2861328125 L 6746.56640625 -2039.166015625 L 6731.84130859375 -2057.0458984375 L 6729.8203125 -2059.49951171875 Z"/></g></svg>