<svg xmlns="http://www.w3.org/2000/svg" width="330" height="604" viewBox="0 0 330 604"><defs><style>.a{fill:rgba(220,241,251,0.41);opacity:0.4;}.b,.c{stroke:none;}.c{fill:rgba(76,158,208,0.82);}</style></defs><g class="a"><path class="b" d="M23,0H307a23,23,0,0,1,23,23V581a23,23,0,0,1-23,23H23A23,23,0,0,1,0,581V23A23,23,0,0,1,23,0Z"/><path class="c" d="M 23 1 C 20.02960205078125 1 17.14852905273438 1.58154296875 14.43692016601562 2.72845458984375 C 11.81732177734375 3.83648681640625 9.464385986328125 5.4228515625 7.443695068359375 7.443603515625 C 5.42291259765625 9.46435546875 3.836456298828125 11.8172607421875 2.72845458984375 14.43695068359375 C 1.58154296875 17.1485595703125 1 20.029541015625 1 23 L 1 581 C 1 583.9703979492188 1.58154296875 586.8514404296875 2.72845458984375 589.5630493164062 C 3.836456298828125 592.1826782226562 5.42291259765625 594.53564453125 7.443695068359375 596.5563354492188 C 9.464385986328125 598.5770874023438 11.81732177734375 600.1635131835938 14.43692016601562 601.2715454101562 C 17.14852905273438 602.41845703125 20.02960205078125 603 23 603 L 307 603 C 309.9703979492188 603 312.8514709472656 602.41845703125 315.5630798339844 601.2715454101562 C 318.1826782226562 600.1635131835938 320.5356140136719 598.5770874023438 322.5563049316406 596.5563354492188 C 324.5770874023438 594.53564453125 326.1635437011719 592.1826782226562 327.2715454101562 589.5630493164062 C 328.41845703125 586.8514404296875 329 583.9703979492188 329 581 L 329 23 C 329 20.029541015625 328.41845703125 17.1485595703125 327.2715454101562 14.43695068359375 C 326.1635437011719 11.8172607421875 324.5770874023438 9.46435546875 322.5563049316406 7.443603515625 C 320.5356140136719 5.4228515625 318.1826782226562 3.83648681640625 315.5630798339844 2.72845458984375 C 312.8514709472656 1.58154296875 309.9703979492188 1 307 1 L 23 1 M 23 0 L 307 0 C 319.7025451660156 0 330 10.29736328125 330 23 L 330 581 C 330 593.7025146484375 319.7025451660156 604 307 604 L 23 604 C 10.29745483398438 604 0 593.7025146484375 0 581 L 0 23 C 0 10.29736328125 10.29745483398438 0 23 0 Z"/></g></svg>