<svg xmlns="http://www.w3.org/2000/svg" width="28.608" height="28.608" viewBox="0 0 28.608 28.608"><defs><style>.a{fill:#042d61;}</style></defs><path class="a" d="M12.1,3.576a.6.6,0,0,1-.6-.6V.6a.6.6,0,1,1,1.192,0V2.98A.6.6,0,0,1,12.1,3.576Z" transform="translate(2.208)"/><path class="a" d="M18.814,6.245a.6.6,0,0,1-.422-1.017l1.685-1.685a.6.6,0,0,1,.843.843L19.235,6.071A.594.594,0,0,1,18.814,6.245Z" transform="translate(3.498 0.647)"/><path class="a" d="M23.98,12.692H21.6a.6.6,0,1,1,0-1.192H23.98a.6.6,0,1,1,0,1.192Z" transform="translate(4.032 2.208)"/><path class="a" d="M20.5,21.1a.6.6,0,0,1-.422-.174l-1.685-1.685a.6.6,0,1,1,.843-.843l1.685,1.685A.6.6,0,0,1,20.5,21.1Z" transform="translate(3.498 3.498)"/><path class="a" d="M12.1,24.576a.6.6,0,0,1-.6-.6V21.6a.6.6,0,1,1,1.192,0V23.98A.6.6,0,0,1,12.1,24.576Z" transform="translate(2.208 4.032)"/><path class="a" d="M3.964,21.1a.6.6,0,0,1-.422-1.017l1.685-1.685a.6.6,0,0,1,.843.843L4.385,20.921a.594.594,0,0,1-.421.174Z" transform="translate(0.647 3.498)"/><path class="a" d="M2.98,12.692H.6A.6.6,0,1,1,.6,11.5H2.98a.6.6,0,1,1,0,1.192Z" transform="translate(0 2.208)"/><path class="a" d="M5.649,6.245a.6.6,0,0,1-.422-.174L3.543,4.386a.6.6,0,0,1,.843-.843L6.071,5.229a.6.6,0,0,1-.422,1.017Z" transform="translate(0.647 0.647)"/><path class="a" d="M11.259,23.072a.606.606,0,0,1-.209-.037.6.6,0,0,1-.383-.637l1.017-7.67H7.6a.6.6,0,0,1-.477-.954l7.152-9.536a.6.6,0,0,1,1.066.455l-1.078,6.458h4.065a.6.6,0,0,1,.524.313.6.6,0,0,1-.026.611L11.757,22.8a.6.6,0,0,1-.5.267ZM8.788,13.536h3.576a.6.6,0,0,1,.591.675l-.764,5.767,5.027-7.633H13.556a.6.6,0,0,1-.588-.694l.79-4.742Z" transform="translate(1.344 0.768)"/></svg>